<svg xmlns="http://www.w3.org/2000/svg" version="1.0" width="2184.000000pt" height="992.000000pt" viewBox="0 0 2184.000000 992.000000" preserveAspectRatio="xMidYMid meet">
<metadata fill="#ffffff">
Created by potrace 1.16, written by Peter Selinger 2001-2019
</metadata>
<g transform="translate(0.000000,992.000000) scale(0.100000,-0.100000)" fill="#ffffff" stroke="none">
<path d="M3008 9199 c-26 -15 -23 -28 25 -92 24 -31 60 -89 81 -128 l38 -70 -26 7 c-39 9 -78 -20 -75 -55 2 -17 -5 -35 -19 -49 -36 -36 -17 -101 29 -102 20 0 52 -35 79 -87 24 -46 60 -81 120 -116 34 -19 40 -28 49 -77 6 -30 23 -82 36 -115 24 -58 47 -136 95 -315 29 -109 153 -363 266 -545 124 -199 133 -219 123 -264 -15 -64 -10 -94 30 -176 124 -254 172 -361 196 -441 15 -49 35 -107 45 -129 31 -69 43 -160 35 -285 -8 -133 -16 -157 -125 -340 -99 -166 -230 -439 -290 -603 -27 -76 -50 -145 -50 -152 0 -7 -15 -24 -32 -37 -73 -55 -76 -46 -12 41 36 50 43 65 33 77 -16 19 -36 18 -61 -6 -12 -10 -25 -17 -30 -14 -4 3 -8 -2 -8 -10 0 -8 -4 -17 -9 -21 -6 -3 -3 15 6 40 11 34 19 44 32 41 10 -4 20 3 28 19 9 22 8 27 -7 35 -27 14 -34 12 -20 -5 9 -11 10 -19 3 -26 -8 -8 -13 -5 -18 10 -4 13 -15 21 -30 21 -13 0 -31 3 -40 7 -14 5 -16 2 -10 -16 4 -14 3 -21 -5 -19 -7 2 -15 -3 -17 -9 -3 -7 0 -13 6 -13 5 0 2 -13 -7 -30 -9 -16 -20 -30 -24 -30 -5 0 -8 -7 -8 -15 0 -16 -1 -15 -64 41 -18 16 -26 19 -26 9 0 -8 5 -17 10 -20 6 -4 8 -11 4 -16 -3 -5 -9 -7 -13 -5 -4 3 -13 1 -21 -5 -12 -7 -10 -9 8 -9 l23 0 -7 -137 c-6 -124 -9 -142 -33 -181 -14 -24 -32 -53 -38 -65 -7 -12 -13 -16 -13 -9 0 6 -9 12 -20 12 -12 0 -20 -7 -20 -16 0 -13 3 -14 14 -5 18 16 29 -9 11 -26 -10 -10 -15 -9 -20 5 -5 13 -8 14 -14 3 -6 -9 -11 -10 -15 -2 -4 6 -2 11 4 11 18 0 9 139 -11 175 -21 37 -36 145 -21 145 6 0 12 -23 14 -52 2 -30 8 -53 16 -56 14 -4 17 34 2 43 -5 3 -10 20 -10 36 0 26 3 29 25 25 15 -3 23 -1 20 5 -4 5 -11 7 -16 4 -13 -9 -11 9 4 24 10 10 7 10 -16 2 -37 -14 -37 -14 -37 9 0 28 -20 25 -21 -2 -1 -20 -2 -21 -5 -3 -6 26 -47 109 -56 113 -5 2 -8 8 -8 13 0 5 -17 46 -39 92 -27 58 -40 101 -44 148 -5 60 -37 195 -52 218 -3 6 -10 35 -16 65 -8 45 -7 68 6 114 15 53 14 63 -4 157 -11 55 -33 138 -49 185 -16 47 -32 101 -36 122 -6 36 -6 36 31 42 21 3 94 10 163 16 220 19 355 45 540 106 168 55 310 152 310 211 0 27 -195 372 -279 493 -93 136 -199 267 -270 337 -83 81 -111 118 -111 149 0 12 -23 69 -51 127 -42 89 -50 114 -48 156 3 61 -13 84 -52 76 -21 -5 -29 -2 -34 14 -9 30 -45 71 -61 71 -8 0 -20 -13 -25 -30 -14 -39 -26 -38 -34 3 -4 17 -13 42 -21 55 -17 25 -52 29 -61 7 -5 -14 7 -90 23 -152 7 -26 -15 -32 -38 -10 -7 6 -51 40 -96 75 -80 59 -123 75 -138 51 -3 -6 40 -58 97 -117 57 -59 127 -138 154 -175 47 -63 66 -91 138 -200 16 -23 43 -63 60 -89 18 -26 50 -76 71 -110 22 -35 70 -103 106 -153 37 -49 81 -117 97 -150 59 -117 120 -296 108 -315 -3 -6 -33 -10 -65 -10 -33 0 -106 -9 -162 -21 -147 -29 -313 -35 -412 -15 -43 9 -121 19 -172 23 -52 3 -94 9 -94 12 0 4 20 27 45 51 44 43 45 45 39 95 -5 40 -2 61 16 100 19 41 21 59 15 119 -4 50 -2 83 8 111 8 23 11 49 7 61 -17 44 -105 171 -143 204 -21 19 -68 62 -103 96 -106 102 -243 162 -343 150 -65 -8 -151 10 -151 32 0 12 -3 12 -15 2 -17 -14 -134 -40 -152 -33 -7 3 -29 -12 -50 -34 -22 -21 -67 -65 -102 -98 -50 -46 -73 -79 -103 -143 -60 -126 -67 -181 -38 -298 21 -87 22 -103 12 -185 -8 -64 -8 -116 0 -182 20 -176 5 -307 -77 -687 -25 -113 -57 -268 -72 -344 -16 -77 -33 -141 -39 -143 -8 -3 -13 29 -16 95 -4 72 -10 107 -24 131 -23 39 -105 96 -154 106 -68 14 -179 82 -292 176 -76 63 -101 70 -106 28 -2 -21 7 -35 45 -68 59 -52 103 -108 103 -133 0 -17 -8 -19 -72 -18 -102 2 -300 -21 -317 -35 -11 -11 -9 -17 9 -35 21 -21 28 -22 171 -18 82 2 149 0 149 -4 0 -4 -9 -12 -20 -18 -22 -12 -29 -73 -10 -85 6 -3 10 -14 10 -23 0 -18 151 -103 182 -102 23 0 31 16 18 39 -12 24 1 35 29 26 26 -8 31 -43 41 -315 4 -129 14 -253 20 -275 15 -51 74 -150 113 -192 39 -41 65 -42 148 -4 73 33 97 56 132 126 32 64 108 250 140 340 13 39 34 91 46 117 11 26 21 52 21 57 0 47 66 -73 74 -135 6 -46 24 -90 61 -149 69 -112 76 -130 69 -202 -3 -38 -1 -102 5 -144 10 -76 5 -153 -10 -143 -4 2 -3 -10 3 -27 14 -39 -9 -172 -54 -324 -32 -106 -50 -174 -64 -240 -7 -31 -14 -41 -32 -43 -36 -5 -51 14 -47 61 l4 42 -28 -34 c-28 -34 -28 -34 -34 -10 -8 32 2 96 18 109 9 8 18 2 34 -22 14 -23 21 -27 21 -15 0 9 -3 17 -8 17 -14 0 -33 58 -26 84 3 15 22 39 41 53 29 22 34 32 30 57 -2 16 2 41 9 55 8 14 14 33 13 41 0 8 -8 -1 -18 -20 -10 -20 -23 -34 -31 -32 -41 9 -73 3 -97 -19 -18 -16 -27 -20 -30 -11 -3 6 -11 12 -19 12 -9 0 -13 -4 -10 -9 3 -5 -1 -11 -9 -15 -8 -3 -15 -1 -15 4 0 6 -7 10 -15 10 -8 0 -15 6 -15 14 0 8 -5 18 -12 22 -8 5 -9 -2 -5 -24 9 -42 2 -40 -29 9 -25 40 -26 65 -2 41 16 -16 25 -15 25 3 0 8 -5 11 -11 8 -6 -4 -2 4 8 16 21 23 28 58 14 67 -4 3 -8 -3 -8 -13 0 -10 -13 -31 -29 -46 -24 -23 -32 -26 -53 -18 -27 10 -43 37 -28 46 6 4 10 -3 10 -14 0 -12 5 -21 11 -21 6 0 9 6 6 14 -3 8 -1 17 6 20 7 2 4 5 -5 5 -10 1 -18 6 -18 12 0 6 -7 3 -16 -5 -21 -22 -27 -20 -14 3 14 27 12 39 -4 19 -12 -16 -15 -15 -36 14 -18 25 -20 32 -9 40 12 7 11 9 -1 7 -26 -3 -40 1 -40 10 0 10 -98 111 -108 111 -23 -1 -34 -20 -29 -49 6 -31 6 -31 -17 -16 -13 9 -31 13 -40 9 -26 -10 -19 -44 18 -84 18 -21 46 -59 62 -86 16 -27 43 -68 61 -92 38 -50 41 -68 13 -75 -12 -3 -20 -14 -20 -25 0 -12 -8 -27 -17 -34 -18 -13 -25 -58 -10 -69 10 -7 -2 -39 -14 -39 -5 0 -9 5 -9 11 0 5 -5 7 -10 4 -6 -4 -8 -10 -5 -15 3 -4 -1 -10 -7 -13 -10 -3 -10 -9 0 -26 7 -12 10 -31 7 -42 -7 -23 1 -25 21 -5 9 9 10 17 4 21 -5 3 -10 14 -10 23 1 15 2 15 15 -2 8 -11 18 -17 21 -13 4 4 1 14 -7 23 -11 13 -11 18 -1 21 6 3 12 14 12 26 0 17 2 19 9 8 6 -9 6 -22 0 -32 -13 -26 -11 -33 7 -19 13 11 19 9 42 -13 22 -23 27 -37 30 -97 5 -77 -2 -120 -19 -120 -8 0 -8 4 0 14 13 15 12 114 -1 122 -4 3 -8 15 -8 27 0 16 -3 18 -9 8 -5 -7 -6 -22 -4 -32 3 -10 0 -19 -6 -19 -6 0 -11 7 -11 15 0 8 -9 15 -19 15 -11 0 -26 3 -35 6 -11 4 -16 1 -16 -11 0 -9 5 -13 10 -10 6 3 10 -1 10 -9 0 -9 -3 -16 -8 -16 -12 0 -62 101 -55 113 4 6 0 8 -10 4 -11 -4 -17 -1 -17 7 0 7 -9 21 -20 31 -14 13 -17 21 -9 26 6 4 8 12 4 19 -6 9 -9 9 -16 -1 -6 -9 -9 -10 -9 -2 0 6 7 18 15 27 19 19 20 40 1 33 -12 -5 -13 1 -9 29 4 22 2 34 -6 34 -6 0 -11 -11 -11 -24 0 -14 -5 -28 -10 -31 -7 -4 -7 -13 0 -26 6 -11 7 -19 1 -19 -14 0 -21 27 -14 60 3 19 1 30 -6 30 -6 0 -11 7 -11 15 0 8 -4 15 -10 15 -13 0 -13 -13 1 -27 6 -6 9 -19 7 -28 -2 -11 -15 5 -36 45 -30 55 -33 65 -21 86 7 13 10 27 6 30 -3 3 -11 -4 -17 -17 -12 -21 -14 -18 -46 48 -31 63 -33 73 -22 99 7 16 19 29 27 29 8 0 16 6 19 13 2 8 -2 10 -13 6 -15 -6 -15 -4 -4 15 8 12 15 17 17 11 2 -6 8 -7 14 -4 7 5 9 -3 5 -22 -6 -32 26 -84 39 -63 4 7 -2 19 -14 30 l-21 17 22 6 c17 5 19 8 8 15 -8 5 -12 18 -8 30 4 18 2 20 -20 15 l-24 -6 16 38 c21 51 63 114 94 140 l24 21 -24 16 c-42 30 -84 22 -129 -24 -22 -23 -40 -35 -41 -28 -1 8 -4 3 -8 -10 -16 -59 -64 -20 -80 66 -7 32 -21 89 -32 127 -13 41 -19 82 -16 102 3 19 2 34 -4 34 -5 0 -9 -8 -9 -17 0 -16 -1 -16 -13 0 -6 9 -24 19 -38 22 -22 5 -28 2 -34 -17 -11 -38 -14 -118 -3 -124 6 -4 8 2 3 15 -4 13 -2 21 6 21 8 0 10 -12 5 -40 -4 -25 -2 -40 4 -40 5 0 10 -12 9 -27 0 -16 -3 -21 -6 -13 -3 8 -16 37 -29 63 -19 39 -22 53 -13 69 8 14 8 23 0 31 -8 8 -11 3 -11 -18 l-1 -30 -17 21 c-9 12 -25 36 -34 53 -12 22 -24 31 -41 31 -37 0 -39 -22 -7 -86 65 -135 81 -175 78 -186 -4 -11 -63 64 -144 180 -19 27 -57 26 -62 -1 -2 -11 28 -67 72 -133 42 -63 76 -116 76 -119 0 -18 -29 4 -94 71 -50 51 -80 75 -93 72 -28 -6 -17 -37 31 -88 79 -83 97 -111 93 -139 -2 -14 -2 -20 0 -12 3 8 12 2 24 -19 18 -29 18 -34 5 -54 -14 -23 -11 -80 5 -70 5 3 6 17 2 32 -6 25 -5 26 12 12 17 -14 18 -14 6 8 -14 26 -12 35 5 24 20 -13 48 -76 35 -80 -6 -2 -11 -11 -11 -19 0 -13 3 -13 15 -3 12 10 15 10 15 -4 0 -9 -8 -16 -19 -16 -25 0 -31 -19 -31 -91 0 -46 -3 -59 -15 -59 -10 0 -15 -10 -14 -32 1 -18 3 -25 6 -15 3 12 11 16 22 12 16 -5 17 2 13 75 -3 54 -1 80 7 80 6 0 20 9 32 21 24 24 49 19 49 -10 0 -11 6 -26 12 -33 20 -22 37 -54 73 -141 18 -45 50 -122 70 -171 44 -108 80 -180 139 -281 l45 -75 -27 -14 c-66 -35 -102 -101 -102 -188 0 -30 -4 -47 -10 -43 -6 3 -10 -1 -10 -9 0 -9 5 -16 10 -16 6 0 10 -12 10 -26 0 -14 -4 -23 -10 -19 -5 3 -7 12 -3 20 3 8 0 15 -7 15 -8 0 -9 -10 -5 -30 4 -19 3 -30 -4 -30 -6 0 -12 10 -12 23 -1 18 -2 19 -6 3 -5 -20 15 -66 29 -66 4 0 8 9 8 19 0 11 4 23 10 26 13 8 13 -8 -2 -40 -13 -28 -19 -30 -36 -13 -21 21 -13 -5 9 -28 26 -28 17 -44 -24 -44 -32 0 -32 0 -53 88 -12 48 -34 119 -49 157 -15 39 -35 95 -43 125 -9 30 -19 57 -22 60 -4 3 -10 19 -13 36 -4 23 -1 33 14 42 22 14 26 67 7 75 -9 4 -9 8 -3 14 6 4 8 28 5 53 l-5 45 -7 -55 c-3 -30 -3 -58 1 -63 9 -9 1 -67 -9 -67 -14 0 -41 51 -37 68 4 14 6 13 12 -5 6 -20 25 -33 25 -18 0 14 -33 54 -41 50 -13 -9 -21 58 -10 86 5 15 7 68 4 125 -6 94 -16 124 -42 124 -6 0 -11 5 -11 12 0 7 -5 5 -12 -4 -8 -10 -34 -18 -68 -21 -65 -5 -175 -53 -189 -82 -5 -11 -14 -36 -20 -55 l-10 -35 2 42 c2 33 0 39 -10 31 -7 -6 -13 -18 -13 -27 -1 -11 -5 -8 -15 9 -14 25 -19 21 -16 -12 1 -9 -3 -19 -9 -23 -6 -4 -10 6 -10 24 0 31 -21 43 -35 21 -3 -5 -2 -10 3 -10 8 0 35 -45 36 -62 2 -18 16 -19 16 -1 0 53 48 23 64 -39 3 -16 11 -28 17 -28 6 0 1 -8 -11 -18 -13 -10 -21 -26 -19 -37 4 -18 5 -18 25 3 l20 22 25 -40 c13 -21 33 -40 43 -42 12 -2 23 -15 29 -33 5 -16 11 -159 14 -317 4 -220 3 -295 -7 -318 -7 -17 -18 -29 -25 -27 -18 7 -40 -33 -24 -43 7 -5 18 -6 26 -3 7 3 13 -2 13 -11 0 -9 -6 -16 -12 -16 -17 0 -92 69 -84 77 3 4 12 1 18 -5 15 -15 28 -16 28 -2 0 6 -7 10 -15 10 -8 0 -15 3 -15 8 0 17 -40 32 -62 22 -22 -8 -22 -9 5 -9 15 -1 27 -5 27 -11 0 -12 -25 -13 -67 -1 -24 7 -33 6 -37 -4 -2 -7 -15 -15 -28 -17 l-23 -3 -3 -1662 -2 -1663 10920 0 10920 0 0 1896 0 1896 -64 -46 c-75 -53 -93 -57 -99 -18 -3 22 -4 21 -6 -9 -1 -32 -14 -49 -37 -49 -2 0 -4 32 -4 70 0 40 4 70 10 70 6 0 10 -9 10 -20 0 -11 5 -20 10 -20 6 0 10 6 10 14 0 8 -4 18 -10 21 -5 3 -10 25 -10 49 0 48 -43 180 -55 169 -4 -5 -5 1 -1 13 8 26 -39 124 -59 124 -8 0 -14 -3 -13 -7 0 -5 -1 -15 -5 -23 -13 -34 -14 -46 -5 -62 10 -20 1 -23 -22 -8 -12 8 -11 21 9 97 12 48 38 120 57 158 32 67 34 74 24 124 -5 30 -10 55 -10 58 0 2 -11 8 -25 13 -15 6 -25 17 -25 29 0 11 -11 33 -25 49 -14 17 -25 34 -25 39 0 5 -14 20 -31 32 -22 17 -39 21 -60 17 -16 -3 -29 -1 -29 4 0 6 5 10 10 10 6 0 10 7 10 16 0 11 -5 14 -16 10 -9 -3 -22 -6 -30 -6 -9 0 -14 -11 -14 -30 0 -28 3 -30 36 -30 31 0 36 -3 31 -20 -3 -11 -1 -23 4 -26 5 -3 9 -25 9 -50 0 -28 -4 -43 -10 -39 -6 3 -7 17 -4 30 9 37 -23 95 -53 95 -13 0 -21 -4 -18 -10 3 -6 12 -10 18 -10 7 0 18 -9 25 -20 11 -18 10 -20 -8 -20 -11 0 -20 5 -20 11 0 5 -4 7 -10 4 -5 -3 -10 -1 -10 4 0 15 -19 14 -35 -2 -8 -9 -10 -19 -5 -28 5 -8 4 -19 -2 -26 -8 -10 -6 -18 6 -31 9 -10 16 -23 16 -28 0 -5 -5 -2 -10 6 -8 12 -10 9 -10 -12 0 -35 12 -36 30 -3 19 36 24 23 6 -19 -8 -20 -11 -36 -5 -36 5 0 9 7 9 15 0 17 25 20 35 5 3 -5 -6 -15 -20 -22 -24 -11 -26 -16 -20 -47 10 -51 15 -56 31 -26 18 36 18 45 -3 45 -16 0 -16 1 0 17 9 9 20 13 24 9 13 -13 8 -139 -6 -166 -8 -14 -15 -20 -17 -15 -8 36 -48 165 -59 190 -7 17 -16 47 -20 68 -4 20 -11 37 -16 37 -5 0 -9 6 -9 13 0 6 -7 24 -14 39 -8 16 -18 49 -22 75 -6 39 -4 45 9 40 9 -3 18 0 21 9 3 8 1 14 -5 14 -6 0 -7 5 -4 10 11 17 -7 11 -21 -7 -12 -16 -13 -16 -14 9 0 15 -4 30 -10 33 -21 13 -4 85 39 165 9 16 3 43 -7 36 -4 -2 -5 15 -4 39 3 30 9 45 20 48 13 4 14 5 2 6 -28 2 -39 -15 -45 -62 -5 -40 -3 -47 12 -48 11 0 13 -3 6 -6 -7 -2 -13 -11 -13 -19 0 -8 -4 -14 -10 -14 -5 0 -11 -12 -11 -27 l-1 -28 -8 30 c-12 45 -12 97 0 90 6 -4 10 10 10 35 0 47 -14 46 -25 -2 -7 -29 -9 -30 -12 -10 -3 13 4 35 13 50 21 31 23 43 13 57 -6 9 -5 50 1 50 1 0 3 8 5 18 3 15 1 16 -11 6 -11 -9 -14 -8 -15 7 -1 11 -5 1 -9 -21 -5 -28 -3 -46 7 -62 15 -22 11 -43 -8 -43 -5 0 -9 11 -9 25 0 14 -6 36 -14 48 -8 12 -23 69 -35 127 -31 158 -56 253 -106 401 -55 161 -59 180 -79 335 -9 67 -28 155 -42 195 -14 41 -31 95 -39 121 -7 25 -16 51 -19 57 -18 29 -25 130 -15 233 13 141 35 236 99 423 28 83 57 188 64 235 17 103 19 106 74 200 25 41 52 89 62 106 54 94 115 340 140 559 14 120 55 372 75 458 12 51 21 67 54 95 31 25 44 47 61 100 13 37 33 77 46 89 32 31 41 86 20 118 -9 14 -47 39 -84 57 -64 30 -72 32 -189 31 l-121 0 -56 -59 -55 -59 -1 -98 c0 -72 5 -113 20 -157 l20 -59 -25 -56 c-14 -31 -50 -115 -79 -188 -30 -73 -68 -155 -84 -182 -202 -330 -217 -364 -242 -537 -28 -186 -32 -204 -79 -334 -52 -147 -57 -156 -94 -182 -79 -55 -113 -86 -138 -123 -24 -37 -115 -109 -138 -109 -11 0 -18 26 -31 119 -5 39 -20 92 -32 119 -30 65 -121 153 -198 192 -35 17 -86 47 -114 66 -75 49 -170 70 -260 57 -120 -18 -328 -89 -375 -129 -63 -54 -178 -241 -196 -318 -5 -25 -4 -28 8 -17 24 19 29 0 28 -107 -1 -140 12 -214 46 -264 16 -24 33 -43 38 -43 5 0 8 20 6 44 -2 40 -1 44 13 32 9 -8 16 -21 16 -30 0 -9 9 -29 19 -45 23 -35 18 -90 -11 -123 -11 -12 -19 -26 -17 -31 2 -5 28 -30 57 -55 59 -50 100 -61 150 -41 32 13 32 13 65 -33 17 -26 56 -70 86 -99 l54 -52 -33 -7 c-27 -6 -48 1 -124 38 -143 72 -257 145 -362 232 -53 44 -114 92 -136 107 -45 31 -190 89 -383 155 -161 55 -575 259 -575 283 0 27 -54 100 -127 173 l-69 67 -84 10 c-81 9 -86 9 -120 -15 -20 -14 -40 -25 -45 -25 -12 0 -115 -103 -115 -115 0 -6 -9 -27 -20 -48 -22 -41 -25 -69 -10 -98 13 -23 60 -49 100 -54 16 -2 60 -21 97 -41 49 -28 85 -40 129 -45 42 -4 72 -14 95 -31 132 -96 293 -220 344 -264 269 -231 495 -374 695 -439 111 -36 151 -57 230 -120 65 -52 141 -100 303 -191 90 -50 112 -78 88 -108 -10 -11 -8 -17 5 -24 15 -8 16 -13 5 -26 -7 -8 -11 -21 -8 -28 3 -7 6 -4 7 7 1 20 1 20 15 1 8 -11 15 -25 15 -30 0 -6 -5 -4 -10 4 -7 11 -10 8 -10 -16 0 -16 -6 -36 -12 -43 -11 -11 -10 -12 1 -6 11 6 13 2 9 -19 -5 -23 -2 -26 21 -26 15 0 21 3 15 8 -11 6 -18 39 -15 70 2 25 19 2 26 -34 3 -20 10 -44 15 -53 5 -9 13 -56 19 -106 5 -49 14 -91 20 -93 6 -2 11 -9 11 -16 0 -7 12 -23 27 -36 17 -14 23 -25 15 -28 -9 -3 -9 -9 -1 -24 12 -22 6 -34 -10 -23 -6 3 -11 21 -11 40 0 43 -12 50 -51 31 -17 -9 -35 -13 -40 -10 -5 3 -9 -3 -9 -12 0 -10 -3 -14 -7 -11 -11 12 19 57 39 57 24 0 23 26 -2 33 -11 3 -18 0 -17 -6 1 -6 -8 -13 -20 -15 -23 -3 -29 -13 -17 -25 4 -4 8 -25 10 -48 3 -23 9 -48 15 -55 6 -7 8 -22 4 -34 -4 -12 -2 -20 5 -20 6 0 8 5 5 10 -3 6 -2 10 3 10 13 0 25 -94 12 -98 -16 -6 -12 -22 6 -22 12 0 14 -7 9 -30 -4 -20 -3 -30 5 -30 7 0 10 6 7 14 -3 7 0 19 6 25 9 9 9 14 1 19 -6 4 -10 21 -9 39 1 18 -2 30 -7 27 -4 -3 -8 10 -8 28 0 19 -7 43 -15 54 -16 21 -20 74 -6 74 5 0 13 -15 17 -32 6 -29 8 -30 14 -13 4 11 6 28 4 37 -1 9 4 23 13 30 14 11 15 9 11 -22 -3 -19 -8 -43 -13 -52 -4 -11 -3 -18 4 -18 6 0 11 7 11 15 0 24 16 18 29 -11 13 -29 6 -48 -9 -24 -5 8 -12 11 -16 7 -4 -4 -1 -13 8 -20 9 -6 18 -19 21 -27 4 -10 6 -8 6 7 1 12 5 24 11 28 5 3 7 12 4 19 -3 8 -1 17 5 21 8 4 8 12 0 27 -9 16 -8 19 3 16 9 -3 14 -26 15 -72 1 -42 8 -77 18 -92 15 -23 14 -24 -4 -24 -14 0 -19 5 -15 15 3 8 2 20 -2 27 -6 9 -10 5 -14 -12 -7 -28 20 -56 45 -46 22 8 18 -7 -10 -40 -24 -28 -36 -82 -15 -69 5 3 10 -1 10 -9 0 -9 4 -16 9 -16 12 0 81 -67 81 -79 0 -5 15 -19 34 -31 19 -11 44 -36 55 -56 l21 -35 -20 -59 c-38 -113 -19 -218 36 -207 14 2 27 1 29 -4 9 -14 -24 -37 -45 -32 -15 4 -20 0 -20 -16 0 -13 -14 -29 -37 -45 -21 -13 -47 -33 -57 -45 -11 -11 -24 -21 -30 -21 -6 0 -35 -16 -64 -35 -39 -27 -58 -34 -77 -29 -25 6 -36 -10 -12 -19 8 -3 6 -10 -8 -20 -17 -14 -21 -14 -31 -2 -14 18 -30 19 -38 3 -5 -10 -7 -10 -12 0 -8 18 -22 15 -33 -7 -9 -16 -8 -18 11 -13 17 4 20 2 15 -11 -4 -11 -2 -14 9 -10 7 3 14 1 14 -5 0 -6 -6 -12 -12 -15 -10 -3 -10 -7 -1 -19 11 -12 9 -18 -9 -34 -14 -12 -19 -14 -14 -4 5 8 -3 3 -16 -12 -17 -19 -28 -24 -39 -17 -12 8 -12 10 1 19 8 5 20 11 25 13 6 3 7 8 3 12 -5 5 -17 0 -27 -9 -15 -14 -24 -15 -39 -7 -15 8 -20 22 -21 61 0 38 2 49 12 44 8 -6 8 -3 -1 9 -8 9 -11 21 -8 26 4 5 3 12 -2 15 -4 2 -9 23 -10 45 -2 33 1 41 20 47 13 4 24 2 26 -5 2 -6 10 -11 18 -11 8 0 14 -5 14 -12 0 -6 3 -9 6 -5 3 3 -2 17 -13 31 -14 20 -24 24 -44 20 -19 -4 -28 0 -33 12 -5 14 -9 15 -19 4 -8 -9 -9 -14 -1 -17 7 -2 9 -22 6 -53 -3 -34 -1 -50 7 -50 8 0 10 -29 7 -101 -4 -96 -16 -153 -16 -74 0 56 -7 40 -13 -32 -4 -38 -2 -63 3 -63 6 0 10 5 10 10 0 6 6 10 13 10 6 -1 1 -10 -13 -21 l-25 -21 -8 48 c-4 27 -5 72 -2 99 2 28 7 93 10 145 7 112 12 140 25 140 5 0 41 20 80 45 66 42 107 62 65 31 -17 -12 -17 -15 -3 -29 14 -14 18 -14 48 4 18 11 35 17 38 14 4 -3 1 -10 -6 -14 -8 -5 -1 -8 18 -8 27 0 29 2 16 15 -10 11 -12 21 -5 38 9 25 3 29 -25 18 -15 -6 -15 -8 1 -20 17 -13 17 -13 0 -14 -10 0 -25 6 -32 14 -12 11 -10 15 11 25 14 6 44 11 68 11 57 0 74 19 50 55 -19 29 -63 55 -92 55 -11 0 -33 -7 -48 -15 -62 -32 -126 -7 -85 34 11 11 23 16 26 11 4 -6 3 -10 -1 -10 -3 0 0 -7 7 -16 12 -15 11 -16 -9 -10 -13 5 -22 3 -22 -3 0 -14 31 -14 66 0 l28 10 -24 12 c-14 7 -29 26 -35 45 -12 41 -21 41 -29 -3 -4 -19 -11 -35 -16 -35 -18 0 43 170 69 191 13 10 16 20 11 30 -5 7 -6 32 -3 55 5 35 2 44 -18 57 -30 21 -43 10 -65 -56 -9 -29 -28 -73 -42 -99 -27 -50 -49 -65 -38 -26 4 13 12 76 19 140 9 94 8 119 -2 132 -30 36 -61 6 -61 -61 0 -58 -31 -214 -41 -207 -5 3 -9 58 -9 123 0 101 -3 122 -18 142 -12 13 -25 20 -34 16 -22 -8 -29 -65 -23 -189 7 -145 -16 -141 -40 7 -12 74 -26 106 -43 103 -14 -3 -17 -14 -15 -63 2 -33 4 -132 6 -220 2 -88 7 -185 11 -215 7 -54 -19 -229 -69 -460 -8 -36 -17 -96 -21 -135 -7 -80 -14 -97 -26 -69 -4 11 -5 -5 -2 -37 8 -72 -1 -103 -27 -96 -10 3 -17 1 -13 -4 3 -5 -4 -9 -15 -9 -14 0 -21 -6 -21 -20 0 -11 -6 -20 -13 -20 -7 0 -20 -9 -30 -20 -9 -11 -24 -20 -32 -20 -8 0 -15 -6 -15 -14 0 -15 -24 -28 -34 -19 -10 10 -7 121 4 128 6 3 10 -4 10 -17 1 -45 50 -79 64 -43 4 10 -1 14 -17 12 -16 -1 -22 4 -23 21 -1 12 3 25 9 29 6 4 7 1 2 -7 -6 -10 -4 -12 9 -7 10 4 15 3 11 -3 -3 -6 0 -10 7 -10 14 0 58 59 58 78 0 7 -10 12 -22 12 -15 0 -19 -3 -11 -8 17 -11 -1 -36 -21 -29 -9 4 -16 13 -16 22 0 8 -5 15 -11 15 -8 0 -7 6 2 17 12 14 12 16 0 8 -11 -6 -13 -3 -8 14 3 14 1 21 -6 18 -7 -2 -10 -22 -8 -49 1 -25 -2 -49 -8 -53 -12 -7 -14 12 -11 108 1 34 -3 57 -9 57 -6 0 -8 -12 -5 -27 3 -16 1 -53 -4 -83 l-10 -55 -2 60 c-1 33 -5 69 -9 80 -10 24 4 55 24 55 8 0 15 -4 15 -9 0 -5 7 -11 15 -14 11 -5 11 0 -3 28 -15 30 -18 32 -29 18 -14 -19 -14 -19 -31 21 -7 16 -16 26 -19 22 -4 -3 0 -17 7 -31 7 -14 11 -28 7 -31 -12 -12 -35 54 -42 121 -4 39 -11 75 -16 81 -16 20 -23 167 -10 207 7 20 17 37 22 37 5 0 9 10 9 21 0 12 8 27 17 34 13 9 17 24 14 50 -2 29 0 36 11 30 10 -6 10 -5 1 5 -6 7 -9 19 -6 28 4 10 2 13 -5 8 -7 -4 -12 -18 -12 -32 0 -13 -4 -24 -10 -24 -17 0 -11 24 20 85 16 32 30 62 30 67 0 5 -11 14 -25 20 -20 9 -28 8 -43 -6 -18 -15 -19 -15 -18 21 1 20 7 38 14 41 7 2 12 8 12 14 0 6 -6 8 -14 5 -11 -4 -14 2 -14 23 1 16 -5 36 -12 45 -14 17 -50 20 -50 4 0 -5 -5 -7 -12 -3 -7 5 -8 3 -4 -5 5 -7 5 -33 0 -59 l-7 -47 -10 40 c-11 45 -21 55 -56 55 -22 0 -23 -3 -18 -42 21 -152 23 -150 -34 -50 -20 35 -36 52 -49 52 -26 0 -25 -11 5 -94 14 -38 25 -75 25 -83 0 -23 -40 -5 -88 39 -23 21 -47 36 -52 33 -24 -15 -7 -52 45 -101 44 -41 57 -59 61 -90 3 -22 14 -60 25 -86 20 -49 25 -194 11 -284 l-7 -42 -37 16 c-21 9 -38 22 -38 28 0 7 -6 14 -13 17 -20 7 -17 -23 4 -44 12 -12 19 -14 23 -6 3 9 5 9 5 0 1 -7 -10 -25 -24 -40 -17 -19 -24 -23 -25 -12 0 8 5 20 12 27 9 9 8 12 -6 12 -16 0 -18 -6 -13 -35 5 -33 4 -35 -18 -29 -23 6 -44 -11 -30 -24 4 -4 10 -1 12 6 3 6 9 12 15 12 6 0 3 -9 -7 -20 -18 -20 -18 -20 -36 3 -10 12 -23 28 -29 35 -13 15 -5 32 16 32 8 0 14 4 14 9 0 4 -11 6 -25 3 -15 -2 -25 0 -25 7 0 6 9 11 21 11 15 0 19 5 15 15 -3 8 -1 15 4 15 6 0 10 4 10 9 0 11 -56 -15 -65 -30 -7 -10 -25 -3 -25 10 0 4 10 13 23 20 19 10 19 11 2 7 -11 -2 -27 -7 -36 -10 -12 -5 -18 0 -24 21 -3 15 -12 31 -18 35 -9 6 -8 8 1 8 18 0 46 29 37 38 -3 4 -11 -1 -16 -11 -6 -9 -17 -17 -24 -17 -17 0 -20 16 -5 25 6 3 10 11 10 18 0 8 -3 8 -12 -1 -7 -7 -17 -12 -23 -12 -5 0 -4 4 4 9 11 7 4 14 -27 29 l-40 19 -10 -23 c-8 -17 -8 -24 4 -28 9 -4 14 1 14 16 0 21 0 21 21 2 20 -18 20 -18 1 -25 -11 -4 -23 -13 -27 -19 -6 -9 -2 -9 13 -1 11 6 25 11 31 11 16 0 13 -30 -3 -36 -10 -4 -18 -30 -23 -77 -4 -40 -9 -62 -11 -49 l-3 23 -21 -26 c-15 -19 -18 -33 -13 -53 10 -38 9 -74 -3 -81 -5 -3 -11 -13 -14 -21 -3 -9 -9 -2 -15 20 -5 19 -7 42 -4 50 4 10 7 5 9 -12 2 -16 8 -28 13 -28 13 0 11 34 -4 63 -12 23 -14 23 -24 9 -10 -15 -11 -14 -6 6 3 13 1 22 -6 22 -6 0 -11 -13 -11 -29 0 -16 -3 -36 -6 -45 -4 -11 0 -16 12 -16 9 0 14 -3 11 -7 -4 -3 -2 -12 4 -19 31 -38 26 -217 -8 -278 -9 -17 -13 -13 -34 30 -39 82 -81 126 -153 162 -36 18 -66 37 -66 41 0 5 18 16 40 25 22 9 40 18 40 20 0 2 -11 6 -25 8 -15 3 -22 1 -18 -5 4 -6 0 -8 -10 -4 -11 4 -17 1 -17 -8 0 -18 -12 -19 -28 -3 -9 9 -15 9 -24 0 -9 -9 -7 -12 10 -12 12 0 22 -4 22 -9 0 -5 -15 -4 -35 2 -40 12 -44 24 -12 36 20 8 18 9 -10 9 -18 -1 -30 -5 -27 -10 8 -13 -7 -9 -51 12 -22 11 -46 19 -52 20 -7 0 -13 5 -13 11 0 6 7 8 17 5 10 -4 14 -4 10 0 -8 8 28 59 89 124 45 48 72 79 118 135 21 24 32 32 37 23 4 -7 6 -15 4 -18 -2 -4 2 -7 10 -7 13 0 13 16 0 50 -6 13 -3 16 9 11 9 -3 16 -12 16 -19 0 -13 29 -29 37 -21 3 2 -3 13 -13 25 -20 23 -27 51 -13 51 5 0 9 5 9 11 0 6 8 22 19 35 18 23 19 23 36 4 14 -15 21 -17 32 -8 11 8 17 7 27 -8 16 -21 30 -15 21 9 -8 19 -47 30 -57 14 -4 -6 -10 -9 -13 -5 -4 3 3 16 15 28 18 18 24 20 31 9 4 -7 12 -10 16 -5 4 5 2 11 -4 13 -18 6 -16 23 3 37 14 11 14 13 -2 27 -16 12 -17 12 -12 -2 4 -9 1 -16 -7 -16 -10 0 -11 5 -5 16 22 36 60 75 67 67 4 -4 0 -12 -10 -17 -20 -12 -22 -40 -5 -57 21 -21 32 -13 13 8 -18 20 -18 21 3 42 24 24 43 18 22 -7 -7 -9 -10 -19 -6 -22 4 -4 11 -1 16 7 5 8 13 11 17 6 4 -5 2 -11 -4 -13 -18 -6 -16 -33 2 -33 9 0 15 10 15 26 0 14 9 37 20 51 16 20 18 34 13 66 -5 31 -3 38 7 32 10 -6 11 0 6 28 -7 35 9 64 16 30 3 -11 6 -7 9 12 4 27 2 31 -18 33 -17 1 -23 -3 -23 -18 0 -12 -7 -20 -17 -20 -13 0 -14 -3 -5 -12 16 -16 15 -28 -3 -28 -8 0 -15 -5 -15 -11 0 -8 -5 -8 -15 1 -18 15 -19 7 -2 -20 10 -17 9 -22 -2 -29 -7 -5 -10 -14 -6 -20 12 -20 37 8 29 33 -6 18 -5 19 8 8 16 -13 17 -51 3 -85 -7 -16 -8 -16 -25 3 -9 11 -22 20 -28 20 -8 0 -8 9 0 32 8 23 8 33 0 36 -8 2 -8 10 0 28 6 14 17 23 23 20 7 -2 12 12 14 38 1 22 6 45 12 50 5 6 9 20 9 32 0 20 2 21 24 11 13 -7 23 -14 21 -17 -2 -3 2 -13 9 -22 12 -16 14 -16 24 7 10 21 9 25 -6 25 -9 0 -28 9 -42 20 -23 17 -23 19 -6 26 10 4 21 2 25 -3 3 -6 16 -15 27 -21 19 -10 25 -7 45 20 13 17 30 37 37 44 14 15 16 24 4 24 -5 0 -15 -11 -22 -25 -15 -28 -30 -33 -30 -10 0 8 3 15 8 15 4 0 13 10 21 23 14 21 13 21 -5 7 -10 -8 -21 -18 -24 -21 -9 -12 -69 -39 -85 -39 -17 0 -21 45 -4 55 6 4 8 13 5 21 -3 8 -1 14 4 14 6 0 10 7 10 15 0 8 4 15 9 15 11 0 3 70 -9 83 -4 4 -18 3 -33 -2 -18 -7 -30 -22 -38 -51 -9 -28 -18 -40 -31 -40 -13 0 -18 8 -18 31 0 16 -4 28 -9 25 -5 -3 -7 -16 -4 -29 4 -19 3 -20 -7 -4 -8 13 -8 22 3 37 8 11 17 17 20 13 4 -3 7 6 7 20 0 15 5 27 10 27 6 0 10 9 10 20 0 11 -7 20 -15 20 -9 0 -12 -6 -9 -15 4 -8 1 -15 -5 -15 -6 0 -11 -7 -11 -15 0 -9 -6 -12 -15 -9 -8 4 -22 0 -31 -7 -14 -11 -18 -10 -30 6 -8 10 -14 25 -14 32 0 16 -59 83 -74 83 -8 0 -11 -27 -10 -87 1 -142 6 -240 11 -215 2 12 9 20 14 17 11 -8 11 -3 -1 29 -13 34 -4 33 14 -1 12 -24 12 -29 -3 -40 -13 -10 -14 -15 -3 -32 13 -23 3 -28 -16 -9 -9 9 -12 9 -12 -1 0 -20 32 -49 38 -33 2 7 8 9 14 6 7 -5 9 6 4 32 -5 28 -4 35 3 24 19 -28 10 -117 -10 -104 -5 3 -7 10 -4 15 4 5 2 9 -4 9 -5 0 -13 -9 -16 -20 -4 -12 -14 -20 -23 -19 -30 3 -35 -1 -22 -16 10 -12 9 -15 -8 -15 -13 0 -24 -11 -33 -32 -22 -57 -146 -194 -192 -214 -23 -10 -45 -22 -48 -27 -4 -5 -10 -4 -13 2 -4 6 -12 11 -18 11 -7 0 -6 -6 2 -15 17 -20 1 -19 -22 2 -10 9 -21 13 -24 10 -4 -4 4 -15 16 -25 l24 -19 -22 -12 c-12 -7 -27 -9 -32 -6 -5 3 -22 -1 -37 -10 l-28 -16 32 5 c18 3 33 4 33 2 0 -2 -19 -24 -43 -48 -24 -24 -49 -52 -55 -63 -6 -11 -12 -14 -12 -7 0 6 -7 12 -16 12 -10 0 -14 5 -10 15 4 10 -2 18 -14 23 -19 7 -18 9 12 38 63 59 102 82 123 74 11 -5 29 -9 40 -9 18 0 18 1 -2 9 -13 5 -23 16 -23 25 0 8 -7 15 -15 15 -19 0 -19 14 0 43 9 15 11 27 5 37 -7 12 -11 8 -16 -17 -4 -18 -10 -33 -15 -33 -17 0 -9 -39 9 -43 12 -3 8 -6 -13 -12 -16 -5 -38 -17 -47 -28 -10 -11 -18 -16 -18 -12 0 4 -11 -4 -25 -19 -14 -15 -25 -21 -25 -14 0 17 40 63 63 71 9 3 17 14 17 24 0 15 -2 16 -10 3 -5 -8 -12 -11 -17 -7 -4 4 -2 17 5 27 14 23 16 132 3 146 -5 5 -11 59 -13 119 -3 96 -6 114 -27 143 -24 34 -22 54 3 33 11 -9 15 -8 20 5 12 31 7 54 -11 47 -13 -5 -15 -2 -10 11 6 14 3 17 -9 12 -9 -4 -23 -1 -30 5 -12 9 -13 9 -9 -3 9 -23 -37 -31 -74 -12 -30 15 -30 16 -16 44 8 16 15 37 15 47 -1 16 -2 16 -12 -2 -6 -11 -15 -22 -19 -25 -4 -3 -9 -16 -10 -30 -3 -19 -9 -24 -24 -22 -94 14 -177 13 -230 -3 -53 -17 -58 -17 -67 -2 -14 25 -26 20 -21 -8 4 -18 -4 -35 -30 -66 -52 -61 -65 -95 -78 -205 -6 -54 -15 -103 -20 -108 -5 -6 -9 -7 -9 -3 0 4 -9 3 -20 -3 -12 -7 -17 -16 -13 -27 5 -12 2 -15 -9 -10 -12 4 -14 1 -11 -14 3 -10 0 -19 -6 -19 -10 0 -15 14 -12 33 0 4 -4 7 -9 7 -6 0 -10 12 -10 28 0 15 -4 23 -8 17 -9 -12 -42 -19 -42 -8 1 16 30 179 40 221 6 24 8 47 5 53 -13 20 -34 7 -40 -24 -4 -18 -14 -43 -24 -56 l-18 -24 -16 49 c-8 27 -18 61 -21 77 -4 16 -13 27 -22 27 -14 0 -16 -9 -10 -61 4 -33 10 -67 13 -75 3 -9 -2 -14 -14 -14 -11 0 -30 -11 -42 -24 -22 -23 -23 -30 -17 -113 9 -121 9 -144 -1 -255 -8 -94 -17 -124 -31 -101 -4 6 -28 14 -54 18 -26 4 -49 13 -51 19 -3 7 -11 47 -18 89 -10 61 -10 89 0 143 7 37 15 73 19 78 4 6 12 36 17 67 9 44 8 58 -3 68 -7 7 -16 10 -20 6 -4 -4 -1 -10 6 -12 14 -5 17 -63 2 -63 -5 0 -10 9 -10 20 0 29 -17 24 -26 -7 -5 -21 -8 -23 -11 -11 -3 10 5 35 16 55 33 61 60 138 67 192 4 29 11 54 15 57 5 3 9 36 9 73 0 37 4 71 9 77 5 5 14 46 19 91 7 60 15 87 31 104 26 28 24 51 -7 64 -12 5 -22 14 -22 20 -1 5 -8 -6 -16 -25 -12 -27 -17 -32 -24 -20 -5 8 -10 22 -10 31 0 21 -19 29 -44 19 -15 -5 -16 -9 -7 -15 8 -4 16 -2 21 5 6 9 10 6 15 -9 7 -23 -4 -45 -12 -23 -3 6 -21 12 -42 12 -24 0 -42 7 -54 20 -20 24 -22 34 -4 24 7 -4 9 -3 4 2 -5 5 -12 9 -15 10 -4 0 -14 3 -22 7 -35 14 -90 6 -90 -13 0 -20 -41 -21 -69 -1 -38 27 -57 26 -93 -4 -54 -46 -71 -33 -98 75 -6 25 -18 70 -26 100 -8 30 -23 91 -34 135 -20 84 -43 115 -84 115 -49 -1 -72 -43 -58 -108 6 -26 20 -99 32 -162 12 -63 31 -157 41 -207 26 -126 25 -130 -16 -147 -48 -20 -57 -50 -45 -137 26 -181 43 -228 141 -384 57 -90 54 -60 30 -330 -6 -66 -13 -167 -15 -224 -3 -57 -10 -109 -15 -114 -6 -6 -11 -20 -12 -32 0 -11 -3 -14 -6 -7 -2 6 -9 10 -13 7 -5 -3 -14 4 -20 15 -11 20 -1 26 38 21 14 -2 16 25 2 34 -6 3 -17 -1 -26 -9 -20 -20 -34 -20 -34 -1 0 8 7 15 16 15 31 0 52 19 46 42 -5 21 -6 21 -13 2 -7 -16 -8 -17 -8 -2 -1 10 8 23 19 30 18 12 29 48 14 48 -14 0 -44 -44 -44 -64 0 -27 -17 -53 -27 -42 -4 5 -3 11 3 13 6 2 9 15 6 28 -2 15 0 25 7 25 6 0 11 5 11 10 0 6 10 24 21 39 16 22 20 40 17 70 -2 27 1 42 9 45 15 6 18 96 3 96 -5 0 -8 -20 -5 -47 3 -33 2 -40 -3 -23 -8 22 -9 19 -17 -25 -4 -27 -7 -60 -6 -72 1 -13 -2 -23 -8 -23 -6 0 -11 -8 -11 -18 0 -11 -8 -27 -19 -36 -10 -9 -22 -35 -25 -58 -10 -59 -23 -78 -54 -79 -26 0 -26 -1 -5 -11 17 -8 25 -7 38 6 9 9 21 16 27 16 18 0 2 -25 -25 -38 -15 -7 -27 -17 -27 -23 0 -12 17 -12 25 1 3 6 15 10 27 10 17 0 18 -2 8 -15 -10 -12 -10 -15 0 -15 8 0 11 -2 9 -5 -9 -9 -143 16 -151 28 -6 9 -8 9 -8 0 0 -7 8 -17 18 -22 16 -10 16 -10 -1 -11 -10 0 -27 4 -37 10 -13 7 -19 6 -23 -4 -4 -10 0 -12 14 -9 29 8 23 -12 -8 -24 -28 -10 -28 -10 -3 -9 14 1 42 10 63 20 48 24 159 15 134 -11 -4 -3 -18 -1 -31 6 -26 14 -75 2 -151 -39 -36 -19 -37 -20 -10 -15 17 4 37 13 46 21 8 8 38 16 65 19 40 4 43 3 17 -4 -18 -5 -39 -13 -45 -18 -7 -6 -31 -16 -53 -23 -22 -7 -53 -21 -70 -31 -16 -11 -37 -19 -45 -18 -11 0 -10 2 3 8 17 6 16 8 -7 21 -14 7 -27 19 -27 27 -1 7 -3 18 -4 23 -1 6 -3 13 -4 18 -1 4 -6 -3 -12 -16 -10 -27 -2 -72 16 -87 10 -8 8 -13 -10 -21 l-22 -11 -1 101 c0 61 3 91 8 76 6 -21 8 -22 15 -8 4 9 4 22 0 27 -3 6 0 8 9 5 18 -7 32 32 17 49 -5 7 -13 36 -17 65 -6 46 -4 56 14 72 11 10 23 16 26 13 3 -4 6 -1 6 6 0 7 8 11 18 9 9 -2 27 7 40 19 13 13 31 23 40 23 12 0 9 -5 -10 -18 -31 -18 -36 -32 -13 -32 8 0 15 7 15 15 0 8 7 15 15 15 17 0 20 -16 5 -25 -5 -3 -10 -14 -9 -23 0 -14 2 -13 9 3 6 13 9 -7 9 -62 1 -45 4 -84 9 -86 11 -8 2 206 -10 220 -8 9 -7 13 2 13 8 0 22 7 31 16 11 10 38 17 66 18 36 1 49 5 51 17 5 26 -45 59 -89 59 -31 0 -39 4 -39 18 0 10 -6 24 -12 31 -11 10 -9 16 10 31 24 20 29 31 10 28 -7 -2 -12 3 -13 11 0 8 -6 16 -12 19 -15 4 -17 -14 -3 -23 7 -4 6 -13 -1 -26 -6 -11 -8 -27 -5 -34 3 -9 -3 -12 -20 -10 -15 1 -24 -3 -24 -11 0 -8 6 -11 15 -8 11 5 13 2 9 -10 -3 -9 -1 -16 5 -16 6 0 11 5 11 11 0 5 5 7 10 4 19 -12 10 -25 -19 -25 -35 0 -45 28 -31 81 12 43 50 118 50 99 0 -9 9 -21 20 -28 17 -10 21 -10 25 3 3 8 7 22 10 30 2 8 -1 29 -7 47 -11 32 -11 32 -20 7 -6 -15 -5 -25 1 -27 14 -5 15 -42 2 -42 -18 0 -23 20 -16 60 5 27 12 40 23 41 11 0 12 2 5 6 -7 2 -13 15 -13 28 0 32 -10 55 -24 55 -21 -1 -53 -36 -65 -73 -18 -54 -31 -55 -31 -3 0 25 4 47 9 50 11 7 2 86 -12 104 -16 21 -38 13 -50 -18 -6 -17 -15 -30 -19 -30 -4 0 -8 -15 -9 -32 0 -18 -4 -51 -8 -73 -7 -33 -8 -27 -8 40 -1 85 -14 135 -36 135 -21 0 -37 -22 -37 -51 0 -15 -5 -40 -11 -56 -6 -15 -11 -50 -11 -78 1 -57 -1 -54 -19 30 -17 82 -26 98 -47 86 -13 -7 -23 -4 -39 11 -19 17 -23 18 -23 6 0 -9 9 -18 20 -21 16 -4 20 -13 19 -39 -1 -18 4 -71 10 -117 6 -47 9 -86 6 -89 -2 -2 -11 3 -20 12 -95 94 -259 131 -394 88 -74 -23 -179 -122 -188 -176 -3 -20 -10 -39 -16 -43 -6 -4 -8 2 -4 16 3 14 1 21 -6 18 -7 -2 -13 -16 -15 -31 -2 -18 0 -26 7 -21 7 4 11 -12 11 -49 0 -44 -4 -57 -19 -66 -18 -9 -18 -12 -5 -40 9 -16 14 -40 11 -52 -3 -20 -5 -19 -12 10 -11 48 -29 40 -22 -11 3 -23 2 -48 -2 -56 -6 -9 -9 -5 -10 13 -3 50 -4 57 -12 49 -4 -4 -9 -27 -11 -49 -2 -31 0 -40 9 -37 7 3 13 2 13 -3 0 -17 -25 -74 -32 -74 -15 0 -8 -37 11 -62 11 -13 23 -41 26 -61 4 -21 10 -36 12 -33 8 8 9 76 1 76 -4 0 -7 16 -6 35 1 19 5 35 10 35 5 0 8 -10 7 -22 -2 -13 0 -28 4 -34 4 -7 8 -28 9 -48 2 -20 8 -34 13 -33 17 6 17 44 1 76 -9 16 -13 36 -10 44 3 8 1 18 -5 22 -6 3 -11 15 -11 26 0 11 5 17 10 14 6 -3 10 1 10 9 0 31 19 25 31 -11 6 -21 17 -41 23 -45 7 -5 5 -18 -7 -43 -9 -20 -17 -49 -17 -66 0 -16 -8 -42 -17 -56 l-17 -26 -8 24 c-4 15 -6 5 -5 -31 2 -43 -1 -55 -13 -55 -9 0 -16 11 -18 29 l-4 29 -14 -28 c-17 -32 -17 -38 -4 -30 14 9 54 -31 45 -46 -5 -8 -4 -10 3 -5 7 4 12 1 12 -9 0 -14 -2 -14 -25 1 -14 9 -25 22 -25 29 0 7 -9 15 -20 18 -14 4 -20 13 -20 34 0 22 2 25 11 13 8 -12 9 -10 7 10 -2 14 -9 24 -16 22 -16 -3 -16 50 0 66 9 9 8 12 -4 12 -9 0 -19 -8 -21 -17 -4 -14 -5 -13 -6 3 -1 20 22 40 42 36 4 -1 7 5 7 14 0 8 -4 13 -9 10 -12 -8 -18 32 -13 78 3 24 7 33 12 26 4 -7 6 34 3 92 -4 68 -2 112 6 125 8 16 41 197 41 227 0 3 15 6 33 8 l32 3 -36 23 c-43 26 -51 61 -48 184 2 66 4 74 22 75 10 1 28 10 38 19 11 9 22 15 25 11 9 -9 -5 -27 -22 -27 -8 0 -14 -7 -14 -15 0 -8 -6 -12 -14 -9 -12 5 -32 -23 -23 -33 4 -4 118 88 155 124 12 13 18 23 14 23 -4 0 -13 -5 -20 -12 -23 -23 -25 3 -2 27 19 21 21 25 7 25 -9 0 -17 5 -17 10 0 15 33 26 38 12 2 -6 10 -8 18 -5 20 7 18 -17 -3 -33 -10 -7 -13 -14 -8 -14 16 0 75 57 75 72 -1 8 -5 7 -14 -5 -19 -25 -66 -14 -59 14 4 13 0 19 -10 19 -8 0 -17 6 -19 12 -3 9 -10 8 -22 -5 -10 -10 -15 -21 -12 -25 4 -3 11 0 16 8 7 12 12 12 21 3 15 -15 12 -19 -25 -29 -27 -7 -28 -6 -24 24 3 21 1 29 -8 25 -7 -2 -10 -11 -7 -19 3 -8 0 -14 -6 -14 -6 0 -11 5 -11 10 0 7 -4 7 -12 0 -7 -6 -28 -20 -47 -31 -34 -20 -34 -21 -28 -79 4 -33 3 -62 -2 -65 -5 -3 -11 21 -13 52 -2 47 2 68 26 117 15 34 41 76 56 95 32 38 30 65 -4 55 -11 -3 -28 -13 -37 -20 -20 -18 -30 -18 -23 1 8 19 -10 19 -39 0 -30 -19 -45 -8 -60 46 -9 30 -18 44 -30 43 -9 -1 -26 14 -38 32 -20 33 -49 46 -49 22 0 -7 10 -33 21 -58 11 -25 32 -97 45 -160 20 -93 23 -128 17 -190 -4 -50 -9 -67 -13 -50 -4 16 -14 26 -29 28 -18 3 -22 0 -18 -12 4 -10 1 -16 -8 -16 -8 0 -15 -4 -15 -10 0 -5 7 -10 16 -10 8 0 13 -4 9 -10 -4 -6 -15 -6 -32 1 -14 5 -28 7 -31 5 -2 -3 8 -8 22 -12 20 -5 25 -11 21 -23 -4 -9 -9 -29 -12 -46 -2 -16 -8 -39 -13 -50 -30 -77 -27 -74 -35 -30 -4 22 -12 42 -16 45 -5 4 -11 22 -14 40 -4 28 -4 31 4 14 5 -12 14 -25 20 -29 6 -3 11 -22 11 -42 0 -20 3 -34 6 -30 13 12 5 79 -11 97 -10 11 -12 20 -6 24 5 4 14 -1 19 -10 7 -12 11 -13 17 -4 4 6 1 19 -8 27 -11 12 -19 12 -35 4 -11 -6 -25 -11 -30 -11 -9 0 -97 217 -129 316 -8 27 -19 114 -24 194 -5 98 -17 181 -35 255 -23 94 -27 141 -33 318 -5 191 -8 210 -25 223 -25 18 -31 18 -50 -2 -12 -11 -16 -36 -16 -97 -1 -92 -16 -264 -26 -290 -13 -35 -29 -9 -37 59 -4 38 -14 110 -22 159 -7 50 -17 113 -20 140 -8 67 -25 123 -41 136 -22 18 -60 2 -74 -31 -10 -25 -10 -49 4 -133 28 -182 39 -318 26 -331 -8 -8 -15 -6 -26 8 -8 11 -14 25 -14 32 0 7 -20 73 -45 148 -25 75 -48 155 -51 178 -11 68 -30 98 -63 98 -16 0 -35 -7 -42 -17 -17 -19 -16 -104 1 -148 6 -17 25 -81 41 -143 16 -62 38 -130 49 -152 23 -46 26 -70 6 -70 -19 0 -138 162 -177 241 -17 35 -38 72 -47 82 -21 24 -59 22 -73 -4 -25 -47 -6 -95 175 -443 31 -60 56 -118 56 -128 0 -10 -7 -35 -15 -54 l-15 -35 -139 3 -139 3 -38 -31 c-45 -35 -67 -74 -58 -99 6 -14 14 -16 48 -10 23 4 56 7 74 6 69 -2 487 -164 508 -196 11 -18 24 -63 79 -290 33 -136 50 -275 33 -275 -4 0 -8 14 -8 30 0 32 -3 34 -35 20 -15 -7 -16 -9 -4 -9 32 -2 53 -147 24 -171 -8 -7 -12 -16 -10 -21 3 -4 8 -27 11 -51 9 -61 14 -60 14 4 0 30 3 58 7 62 5 4 8 33 7 64 -1 33 1 40 3 17 2 -22 8 -50 14 -62 7 -12 10 -48 7 -82 -2 -34 -1 -61 4 -61 4 0 8 -13 8 -30 0 -16 7 -50 16 -75 17 -52 11 -113 -10 -96 -9 7 -12 3 -11 -16 0 -15 6 -28 13 -31 6 -2 12 -11 12 -20 0 -20 -34 -75 -42 -67 -2 3 -2 -10 1 -28 4 -31 5 -31 12 -7 4 14 8 18 8 10 1 -8 9 5 17 29 10 26 14 59 10 80 -3 20 -1 43 4 51 7 11 10 7 10 -17 0 -17 4 -34 9 -37 5 -3 12 -36 15 -73 4 -40 18 -90 33 -122 23 -48 25 -58 14 -88 -10 -26 -10 -41 -1 -69 7 -20 10 -60 8 -90 -3 -29 -1 -51 4 -48 4 3 8 0 8 -6 0 -12 -67 -4 -85 10 -5 5 -23 10 -40 12 -28 3 -31 7 -38 53 -10 60 -18 323 -11 348 3 9 9 15 13 12 5 -2 15 3 23 13 13 15 13 20 1 42 -14 25 -14 25 -8 -7 5 -25 3 -33 -8 -33 -12 0 -13 7 -6 40 5 23 8 53 7 69 -2 27 -2 28 -30 12 -15 -9 -28 -25 -29 -36 -1 -17 -2 -17 -6 -2 -5 18 -23 24 -23 7 0 -5 -5 -10 -11 -10 -6 0 -9 7 -6 14 7 18 -20 10 -42 -12 -12 -12 -12 -19 -2 -46 7 -17 14 -40 16 -51 1 -13 1 -14 -2 -3 -2 10 -8 18 -13 18 -15 0 -28 63 -17 78 7 9 6 17 -1 24 -9 9 -12 8 -12 -4 0 -8 -7 -21 -15 -28 -13 -11 -15 -8 -15 13 0 14 4 29 10 32 5 3 10 18 10 33 l-1 27 -17 -30 c-20 -36 -23 -132 -4 -140 7 -3 12 5 12 20 0 14 5 25 11 25 7 0 9 -10 5 -25 -5 -18 -2 -25 8 -25 25 0 28 -18 5 -30 -24 -13 -41 -4 -19 10 8 6 10 10 5 10 -21 0 -55 -32 -55 -51 0 -13 11 -25 34 -34 30 -13 34 -19 39 -67 4 -29 7 -90 7 -135 l0 -83 -34 0 c-19 0 -37 4 -40 9 -3 5 -31 12 -61 16 -30 3 -55 11 -55 16 0 5 5 9 10 9 6 0 10 5 10 10 0 16 -27 12 -34 -5 -5 -14 -46 -22 -46 -8 0 3 14 19 31 34 32 29 41 70 21 105 -9 16 -11 11 -7 -24 3 -31 0 -45 -11 -49 -8 -3 -14 -11 -14 -19 0 -8 -4 -14 -10 -14 -5 0 -10 9 -10 20 0 11 4 20 8 20 5 0 14 21 20 48 18 76 60 165 77 158 13 -5 32 28 27 47 -1 4 2 7 8 7 5 0 10 -7 10 -15 0 -8 4 -15 9 -15 10 0 7 88 -4 163 -4 27 -3 47 2 47 5 0 15 29 22 65 9 43 18 64 26 63 7 -2 23 8 35 22 15 17 24 21 27 13 5 -13 33 -19 33 -7 0 3 -8 16 -18 29 -19 24 -19 24 -36 3 -10 -11 -21 -29 -26 -41 -6 -16 -9 -18 -9 -5 -1 9 9 29 22 45 31 38 67 125 67 162 0 16 4 32 9 35 13 8 2 44 -15 50 -15 6 -50 74 -46 89 1 4 -8 7 -19 7 -19 0 -21 4 -15 30 5 29 -7 42 -17 18 -4 -8 -6 -7 -6 3 -1 9 6 19 14 23 15 6 22 66 7 66 -15 0 -13 58 3 64 12 4 14 0 9 -22 -4 -23 -4 -24 6 -9 14 22 34 12 21 -11 -5 -9 -5 -26 0 -39 5 -13 6 -30 2 -40 -4 -11 -3 -14 5 -9 21 13 14 104 -10 136 -27 37 -36 37 -48 5 -11 -28 -21 -31 -50 -13 -24 15 -39 2 -18 -15 9 -6 18 -19 21 -27 4 -11 6 -11 6 3 1 22 26 17 26 -4 0 -8 6 -20 13 -28 19 -20 5 -27 -16 -8 -10 10 -23 17 -28 17 -5 0 -15 9 -22 20 -7 11 -19 20 -27 20 -8 0 -19 9 -25 20 -16 30 -90 25 -90 -7 0 -8 -5 -11 -10 -8 -16 10 8 45 30 45 11 0 20 4 20 9 0 17 -32 42 -47 37 -8 -3 -19 -6 -24 -6 -6 0 -7 -5 -4 -10 4 -7 12 -7 24 0 19 9 31 4 31 -13 0 -5 -6 -7 -12 -4 -7 2 -21 -5 -31 -16 -9 -11 -27 -21 -39 -22 -12 -1 -24 -8 -26 -15 -4 -10 3 -11 28 -7 l32 7 -17 -28 c-10 -15 -14 -24 -10 -20 5 4 15 2 23 -5 9 -6 13 -7 10 -2 -8 13 19 38 27 25 14 -23 12 -49 -6 -69 -11 -12 -15 -21 -9 -21 19 0 10 -16 -16 -30 -17 -9 -28 -11 -32 -4 -12 19 -37 22 -57 8 -10 -8 -26 -14 -34 -14 -11 0 -10 4 5 14 10 8 16 18 12 22 -4 4 -14 2 -21 -5 -16 -13 -22 -101 -7 -101 5 0 7 7 3 15 -5 14 -1 14 30 -1 37 -18 62 -49 29 -37 -14 6 -15 5 -2 -9 8 -9 17 -14 19 -12 10 9 29 -27 25 -47 -5 -20 -4 -21 6 -9 9 12 11 10 6 -10 -4 -19 0 -29 14 -38 11 -7 20 -22 20 -33 0 -21 0 -21 -20 2 l-20 24 3 -23 c2 -13 9 -27 17 -32 14 -9 20 -93 7 -106 -9 -10 -36 26 -37 49 0 9 -4 17 -10 17 -5 0 -10 -2 -10 -4 0 -12 25 -72 32 -77 5 -3 6 -18 2 -34 -6 -24 -8 -25 -16 -11 -6 10 -7 20 -4 23 3 3 0 15 -6 27 -21 39 -27 85 -12 97 7 6 19 7 25 3 8 -5 9 -3 4 7 -5 7 -8 28 -7 47 2 22 -1 31 -8 27 -6 -4 -10 -14 -9 -23 3 -36 -2 -52 -16 -52 -8 0 -15 -5 -15 -11 0 -5 -4 -7 -10 -4 -5 3 -10 1 -10 -4 0 -6 5 -11 11 -11 7 0 9 -11 6 -26 -3 -16 0 -28 9 -31 8 -3 14 -15 14 -28 0 -12 5 -36 11 -54 6 -18 9 -35 5 -38 -3 -3 -9 8 -12 25 -7 33 -24 44 -24 16 0 -9 -5 -12 -12 -8 -14 9 9 -24 29 -41 7 -6 9 -22 6 -39 l-6 -29 -18 24 c-15 20 -21 22 -37 12 -13 -8 -23 -8 -30 -1 -15 15 -55 -29 -59 -64 -1 -15 2 -28 7 -28 6 0 10 -10 10 -23 0 -13 5 -28 12 -35 7 -7 8 -12 3 -12 -4 0 0 -9 10 -20 15 -17 16 -24 5 -50 -10 -23 -17 -29 -34 -25 -24 7 -40 -13 -51 -63 -4 -21 -3 -32 4 -32 6 0 11 10 11 23 0 26 25 66 35 56 3 -4 -5 -31 -19 -60 -14 -30 -25 -48 -26 -40 0 11 -3 11 -15 1 -8 -7 -15 -17 -15 -22 0 -6 7 -8 15 -4 21 8 20 -28 -2 -45 -15 -12 -16 -12 -11 3 9 22 -15 53 -36 45 -9 -4 -16 -3 -16 2 0 14 28 33 39 27 18 -11 17 18 -1 36 -19 19 -24 48 -8 48 6 0 10 -9 10 -20 0 -11 5 -20 10 -20 6 0 10 13 10 30 0 17 7 33 16 38 11 6 15 17 11 31 -3 11 -1 24 4 27 15 9 10 51 -8 65 -15 13 -16 11 -9 -23 4 -23 3 -39 -4 -43 -6 -4 -9 -12 -7 -19 6 -15 -29 -64 -38 -54 -4 3 3 25 15 47 18 36 21 59 21 182 0 105 -4 147 -15 167 -41 75 -41 73 -25 83 10 7 6 8 -14 5 -31 -5 -67 11 -67 31 0 7 9 13 21 13 16 0 19 4 14 23 -11 38 -75 78 -75 47 0 -5 -20 -9 -45 -8 -33 2 -45 6 -45 18 0 13 -1 13 -10 0 -16 -24 -12 -30 19 -30 42 0 48 -18 9 -23 -25 -3 -21 -4 15 -5 41 -2 50 1 54 17 3 11 13 19 24 18 10 -1 16 -3 14 -6 -3 -2 -1 -9 5 -15 5 -7 5 -17 -1 -26 -8 -11 -12 -12 -16 -2 -2 6 -12 12 -21 12 -15 -1 -14 -3 2 -15 30 -23 13 -28 -28 -8 -30 14 -42 15 -69 5 -45 -16 -73 -15 -102 4 -26 17 -34 37 -12 32 16 -3 57 24 57 38 0 7 -8 10 -20 7 -11 -3 -20 -11 -20 -18 0 -8 -8 -11 -20 -8 -11 3 -20 1 -20 -5 0 -6 -3 -17 -6 -26 -4 -11 3 -19 22 -28 l29 -12 -25 -4 c-14 -2 -29 -9 -33 -16 -5 -6 -5 0 -2 13 6 19 4 23 -9 18 -16 -6 -44 29 -32 40 3 3 9 -2 12 -12 6 -15 8 -15 20 6 7 13 13 30 14 37 0 18 -18 15 -22 -5 -3 -16 -4 -16 -20 0 -21 21 -32 22 -24 1 3 -8 2 -13 -3 -10 -14 9 -20 46 -8 47 7 0 -14 7 -46 16 l-59 15 -38 -31 -39 -31 -21 35 c-12 19 -22 35 -23 35 -1 0 -19 6 -40 14 l-39 13 43 49 c23 27 51 54 63 61 25 15 17 17 -18 4 -17 -7 -26 -7 -30 2 -3 7 -3 2 -1 -10 3 -12 1 -25 -6 -28 -13 -8 -4 113 12 169 5 17 9 43 9 57 0 20 6 28 25 33 26 7 34 31 13 39 -9 3 -4 14 15 31 31 31 32 33 12 52 -13 14 -15 13 -15 -10 0 -16 -6 -26 -14 -26 -10 0 -16 -13 -19 -37 -3 -29 -4 -25 -5 18 -3 91 42 331 78 414 21 49 66 99 81 89 8 -4 9 3 4 24 -4 18 1 66 10 113 9 45 14 95 11 111 -5 24 -1 31 27 48 87 51 88 103 4 133 -5 1 5 27 22 58 16 30 38 83 47 117 17 59 16 63 -1 82 -24 27 -71 26 -96 -2 -11 -13 -33 -52 -49 -88 -35 -79 -61 -91 -111 -54 -44 32 -76 30 -171 -11 -44 -19 -84 -33 -89 -29 -25 15 -79 191 -79 260 0 53 -31 94 -69 94 -59 0 -76 -54 -61 -196 11 -101 62 -396 79 -453 6 -18 13 -84 17 -145 7 -122 9 -112 -71 -296 -58 -133 -115 -280 -115 -296 0 -8 -5 -14 -11 -14 -6 0 -9 -6 -6 -12 2 -7 0 -22 -6 -32 -9 -18 -10 -18 -24 5 -10 16 -12 18 -7 4 15 -43 17 -68 5 -61 -6 4 -11 2 -11 -3 0 -6 -4 -11 -10 -11 -5 0 -10 7 -10 15 0 7 -8 18 -17 24 -15 8 -16 12 -5 22 6 7 12 20 12 28 0 24 -19 -1 -30 -39 -5 -18 -7 -30 -3 -26 3 3 13 -3 20 -14 12 -17 12 -24 3 -35 -15 -18 1 -20 17 -4 9 9 10 6 6 -10 -4 -16 -11 -21 -24 -18 -12 3 -19 0 -19 -10 0 -8 4 -12 9 -9 5 4 7 -3 4 -14 -3 -11 -9 -20 -13 -20 -4 0 -10 -10 -14 -22 l-6 -23 -19 25 c-11 14 -22 22 -25 19 -4 -3 3 -18 15 -32 20 -26 19 -67 -2 -67 -13 0 -11 14 3 28 8 8 8 12 1 12 -22 0 -34 -29 -29 -67 4 -24 3 -33 -3 -24 -10 16 -46 7 -36 -9 4 -6 11 -8 16 -5 14 9 11 -12 -4 -27 -8 -7 -20 -31 -27 -53 -19 -60 -29 -69 -49 -43 -10 12 -23 18 -29 14 -15 -9 -16 -71 -1 -97 11 -22 -5 -124 -24 -147 -6 -7 -11 -30 -13 -50 -1 -20 -5 -45 -9 -54 -4 -10 -3 -18 3 -18 5 0 13 10 17 23 l8 22 4 -24 c3 -13 1 -26 -5 -30 -5 -3 -12 -19 -16 -35 -10 -40 -48 -94 -64 -88 -7 2 -12 0 -10 -5 1 -4 -2 -18 -6 -31 -7 -21 -9 -19 -30 21 -13 24 -31 74 -40 113 -23 96 -39 148 -48 154 -4 3 -10 26 -13 50 -5 32 -4 41 4 30 25 -36 18 27 -10 82 -12 24 -11 48 1 48 6 0 10 14 10 31 0 19 4 28 11 24 6 -4 5 3 -3 15 -10 18 -10 24 0 27 6 3 10 8 7 13 -3 5 -1 20 4 34 8 20 7 24 -4 19 -8 -3 -15 -1 -15 4 0 6 29 25 65 43 36 18 65 39 65 47 0 9 5 11 13 7 6 -4 3 3 -8 15 l-20 23 -3 -26 c-4 -31 -47 -55 -66 -36 -5 5 -17 10 -25 10 -14 -1 -13 -3 2 -14 20 -16 22 -26 4 -26 -7 0 -20 -9 -30 -20 -14 -17 -15 -24 -5 -41 10 -17 10 -23 1 -26 -8 -3 -11 -14 -7 -29 6 -25 -10 -34 -19 -11 -3 6 -6 -6 -7 -28 l-2 -40 -10 49 c-5 30 -5 51 0 55 5 3 13 20 16 38 4 17 14 37 22 44 8 6 14 19 14 29 0 27 73 72 127 78 57 6 77 23 67 54 -5 13 -7 26 -6 30 1 4 -5 5 -13 2 -8 -4 -15 -1 -15 4 0 6 -6 17 -13 24 -7 7 -18 22 -25 33 -6 11 -12 14 -12 7 0 -7 -4 -10 -10 -7 -15 9 -12 -1 4 -18 12 -12 9 -13 -22 -12 -21 1 -47 -2 -59 -6 -21 -8 -23 -5 -23 21 0 23 5 31 25 36 14 3 25 12 25 20 0 8 6 14 13 14 8 0 9 3 1 8 -6 4 -14 14 -18 22 -3 8 -4 5 -2 -8 2 -12 0 -20 -5 -16 -5 3 -9 -3 -9 -12 0 -10 -2 -15 -5 -12 -7 7 17 98 26 98 4 0 10 14 14 30 4 16 10 30 15 30 4 0 10 27 14 59 6 53 10 61 34 70 26 9 26 9 3 10 -23 1 -23 3 -17 64 8 75 2 97 -29 97 -29 0 -35 -9 -75 -108 -18 -45 -37 -85 -42 -89 -6 -3 -9 0 -6 8 3 8 0 19 -7 25 -6 6 -26 54 -44 106 -38 112 -75 164 -109 154 -28 -9 -28 -24 3 -141 13 -52 22 -101 19 -109 -9 -24 -39 -24 -57 1 -17 22 -17 23 3 23 12 0 18 -4 15 -10 -3 -5 -1 -10 5 -10 7 0 9 7 6 16 -3 9 -6 20 -6 25 0 4 -7 6 -15 2 -9 -3 -15 -2 -14 3 4 21 -2 28 -12 14 -8 -12 -9 -10 -4 8 4 14 2 22 -6 22 -8 0 -10 -14 -5 -50 5 -40 4 -50 -7 -50 -23 0 -35 22 -32 60 3 50 -13 101 -43 133 -31 33 -90 37 -152 10 -37 -16 -53 -33 -31 -33 5 0 12 -14 16 -30 4 -17 11 -28 16 -24 5 3 7 9 4 14 -3 5 7 18 22 29 16 11 33 25 39 30 7 5 22 7 35 4 22 -6 22 -7 3 -14 -15 -6 -13 -8 13 -8 25 -1 30 -4 26 -20 -3 -10 0 -22 6 -25 13 -9 15 -106 2 -106 -11 0 -25 20 -26 35 -2 43 -19 76 -42 81 -35 9 -55 -13 -45 -50 5 -17 14 -32 21 -34 10 -3 11 0 1 17 -6 12 -9 27 -6 34 3 9 5 8 5 -1 1 -10 6 -10 22 -2 19 11 20 9 17 -21 -2 -26 -9 -35 -27 -39 -58 -13 -49 -57 18 -87 29 -13 32 -17 17 -21 -10 -2 -39 6 -63 18 -35 17 -47 19 -58 10 -13 -10 -13 -16 0 -40 8 -16 26 -37 41 -49 19 -15 24 -26 19 -43 -6 -21 -5 -22 8 -5 14 17 16 16 36 -9 21 -27 27 -80 12 -118 -7 -18 -9 -17 -36 10 l-28 29 26 -37 c23 -32 27 -47 27 -110 0 -40 7 -100 15 -133 18 -77 18 -75 -4 -75 -24 0 -81 -58 -81 -83 0 -30 23 -100 37 -115 25 -26 40 -104 32 -167 -4 -37 -2 -98 6 -160 24 -176 27 -217 18 -212 -6 4 -10 0 -10 -7 0 -7 7 -13 16 -12 16 1 24 -32 33 -130 l5 -51 -29 16 c-27 15 -41 61 -18 61 6 0 10 -9 10 -20 0 -11 4 -20 9 -20 11 0 5 54 -9 80 -6 11 -15 20 -20 20 -6 0 -10 7 -10 15 0 25 -17 17 -22 -10 -4 -16 -1 -25 8 -25 9 0 12 -13 11 -40 -1 -45 -1 -44 -30 -28 -21 11 -21 11 -2 20 22 9 -45 1 -71 -9 -9 -3 -14 2 -14 16 0 23 -15 28 -24 9 -6 -13 -4 1 18 127 10 58 14 67 23 51 11 -20 6 -56 -8 -56 -5 0 -9 -7 -9 -16 0 -9 7 -14 16 -12 8 2 15 8 15 13 0 6 8 15 18 20 63 35 98 89 66 101 -23 9 -31 -4 -18 -26 10 -14 9 -21 -2 -30 -10 -8 -18 -7 -34 7 -21 18 -30 39 -11 28 6 -3 10 0 10 9 0 8 5 16 12 18 13 5 2 28 -13 28 -6 0 -7 -5 -4 -10 4 -6 -4 -19 -17 -29 -27 -23 -38 -19 -14 4 22 22 23 157 1 175 -17 14 -22 126 -6 115 17 -10 23 15 7 31 -15 14 -16 14 -16 -2 0 -10 -3 -15 -6 -11 -3 3 -6 22 -6 41 0 20 -4 39 -9 42 -14 8 -10 24 6 24 8 0 15 -5 15 -11 0 -5 4 -8 10 -4 5 3 6 13 3 23 -6 15 -5 15 10 3 19 -15 24 -2 6 16 -9 9 -20 6 -43 -10 -17 -12 -33 -23 -35 -25 -3 -1 1 -8 7 -14 7 -7 12 -17 12 -22 0 -6 -7 0 -16 12 -14 21 -14 25 1 49 16 24 16 26 -3 45 -11 11 -26 18 -33 15 -10 -4 -7 -8 9 -12 12 -4 22 -14 22 -21 0 -19 -29 -18 -36 1 -4 8 -17 15 -31 15 -13 0 -22 3 -20 7 6 10 -131 9 -140 0 -3 -4 17 -7 45 -7 53 0 162 -34 162 -51 0 -13 -11 -11 -29 4 -19 16 -108 37 -155 37 l-33 0 -6 72 c-6 71 4 111 18 70 3 -13 12 -19 20 -16 8 3 11 12 8 21 -3 8 0 19 8 25 11 7 11 11 2 15 -16 6 -17 53 -1 53 9 0 9 3 0 12 -16 16 -15 48 0 48 7 0 3 9 -9 21 -18 19 -20 26 -10 53 6 17 17 37 24 44 14 14 17 35 7 45 -10 10 -34 -4 -34 -20 0 -9 5 -11 13 -7 6 4 4 -2 -7 -14 -10 -12 -20 -33 -22 -48 -1 -14 -5 -28 -8 -31 -3 -3 2 -11 10 -18 15 -11 15 -14 1 -41 l-16 -29 -1 27 c0 14 -5 28 -11 30 -12 4 31 157 51 180 35 42 70 92 70 100 0 6 11 24 26 40 32 39 29 74 -6 71 -50 -5 -60 -7 -59 -18 5 -41 -17 -48 -31 -9 -12 30 -27 24 -27 -10 0 -17 4 -23 14 -19 13 5 13 3 2 -15 -16 -25 -33 -34 -54 -26 -12 5 -13 10 -1 32 22 42 49 150 43 167 -14 34 -64 9 -81 -40 -11 -30 -90 -145 -99 -145 -15 0 13 168 38 232 8 20 -27 38 -57 30 -25 -6 -60 -104 -67 -186 -6 -70 -23 -96 -35 -54 -3 13 -6 62 -6 109 0 93 -11 116 -50 104 -34 -11 -41 -40 -47 -191 -6 -152 -15 -180 -51 -157 -25 15 -71 85 -72 108 0 18 -8 20 -75 23 -75 3 -75 2 -75 -23 0 -15 -4 -24 -10 -20 -5 3 -10 15 -10 25 0 13 -14 25 -42 38 -51 23 -88 56 -88 80 -1 24 -27 55 -39 47 -6 -3 -11 1 -11 10 0 9 -19 52 -42 97 -33 64 -43 94 -46 144 -4 58 -1 69 33 131 20 37 45 77 56 89 37 40 17 73 -36 60 -32 -8 -92 -61 -111 -97 -8 -16 -19 -29 -26 -29 -6 0 -28 16 -49 35 -48 43 -77 44 -150 8 -38 -20 -55 -35 -57 -50 -4 -25 -56 -68 -72 -58 -5 3 -10 2 -10 -4 0 -5 6 -12 13 -14 9 -4 9 -6 0 -6 -7 -1 -13 -10 -13 -21 0 -11 -9 -30 -20 -42 -53 -60 -53 -55 -2 -80 39 -19 47 -28 47 -50 -1 -20 4 -27 15 -25 8 1 14 -4 12 -10 -1 -7 5 -13 13 -13 8 0 15 -6 15 -14 0 -9 -9 -12 -27 -9 -27 4 -27 4 -8 -11 19 -16 19 -17 -3 -39 -19 -19 -24 -20 -32 -7 -5 8 -10 11 -10 6 0 -5 -9 1 -20 14 -24 27 -25 49 -5 76 22 30 20 51 -4 30 -38 -35 -36 -88 6 -133 19 -21 67 -16 89 10 31 35 30 74 -2 102 -16 13 -25 28 -20 32 4 4 16 -2 26 -14 10 -13 21 -23 25 -23 9 0 77 -50 92 -68 8 -10 9 -22 1 -43 -12 -34 -12 -34 22 -44 20 -6 23 -5 13 6 -15 16 -17 49 -3 49 6 0 11 -10 11 -22 1 -13 2 -30 3 -38 1 -8 4 -19 8 -25 3 -5 9 -37 13 -70 3 -33 8 -70 11 -82 6 -32 -22 -30 -30 1 -5 19 -15 26 -47 31 -32 6 -40 11 -37 26 2 11 8 19 13 19 6 -1 9 -8 7 -16 -5 -24 6 -16 22 18 12 23 13 34 5 39 -6 4 -8 12 -4 19 6 10 11 9 22 -5 13 -18 13 -18 13 1 0 11 -12 27 -27 36 -27 16 -28 16 -59 -18 -33 -35 -64 -45 -64 -20 0 8 15 26 32 40 26 20 30 28 20 38 -6 6 -12 17 -12 23 0 5 5 3 10 -5 9 -13 11 -13 20 0 14 22 13 25 -15 26 -15 1 -25 -3 -25 -12 0 -18 -40 -54 -61 -54 -10 0 -19 -6 -22 -12 -4 -10 -7 -10 -18 0 -16 15 -56 16 -61 1 -2 -6 -12 -1 -23 12 l-20 22 23 -12 c15 -8 22 -8 22 -1 0 6 -12 16 -27 22 -38 16 -39 18 -25 27 10 6 10 16 -1 50 -13 35 -13 40 -1 30 18 -15 19 3 2 30 -12 19 -12 19 -23 -2 -9 -17 -9 -28 4 -50 13 -22 13 -29 3 -36 -10 -6 -10 -14 -2 -36 12 -31 6 -41 -25 -47 -25 -4 -32 -33 -10 -42 13 -5 15 -1 10 17 -4 16 -3 18 3 7 14 -22 22 -90 11 -90 -5 0 -9 5 -9 11 0 18 -41 70 -51 64 -5 -4 -9 -11 -9 -16 0 -6 4 -8 9 -5 5 4 19 -10 31 -29 12 -19 25 -35 29 -35 18 0 33 -79 42 -220 18 -267 -19 -542 -90 -673 -16 -29 -32 -72 -36 -95 -4 -23 -12 -45 -17 -49 -8 -4 -9 2 -4 18 13 42 11 53 -7 57 -15 3 -17 -2 -12 -35 6 -43 -7 -75 -25 -57 -8 8 -7 14 5 24 8 7 15 17 15 22 0 6 -5 6 -14 -1 -10 -8 -20 -6 -40 10 -37 29 -45 16 -11 -15 22 -21 24 -26 11 -26 -13 0 -16 -5 -11 -20 3 -11 3 -25 -2 -32 -11 -19 -12 -37 -2 -44 5 -3 9 4 9 16 0 26 26 54 41 44 6 -4 7 -9 2 -13 -17 -12 -64 -105 -55 -110 18 -12 22 -58 7 -71 -18 -15 -20 -40 -2 -40 20 0 37 56 26 92 -6 24 -4 42 11 75 10 23 23 43 29 43 5 0 12 12 14 28 l4 27 2 -28 c1 -31 -35 -105 -42 -85 -2 7 -4 -25 -3 -72 l1 -85 -45 -3 c-25 -2 -52 -10 -60 -17 -9 -8 -33 -17 -55 -20 -34 -5 -45 -1 -71 21 -31 26 -32 26 -13 45 11 11 17 25 13 30 -4 8 -10 7 -16 -2 -7 -11 -8 -9 -4 4 3 10 6 27 6 38 0 10 5 19 10 19 6 0 10 -7 10 -17 0 -9 3 -13 7 -10 3 4 1 18 -6 31 -11 20 -10 29 10 67 14 28 24 38 26 29 7 -24 34 -80 38 -80 5 0 -2 38 -11 51 -9 15 -13 79 -5 79 3 0 5 24 3 52 -2 38 0 49 7 38 8 -12 13 -12 22 -3 10 10 7 14 -14 22 -30 12 -35 25 -38 111 -3 73 5 105 26 114 8 3 15 10 15 15 0 6 10 21 23 34 12 13 37 41 56 61 19 20 31 39 28 43 -4 3 -7 1 -7 -5 0 -7 -5 -12 -10 -12 -14 0 -54 -46 -114 -128 -17 -23 -26 -29 -32 -21 -4 7 2 19 14 30 15 11 20 23 15 35 -6 15 -7 15 -14 -4 -5 -12 -17 -22 -27 -22 -23 0 -56 35 -47 49 3 6 -1 11 -10 11 -10 0 -13 -5 -9 -12 5 -7 2 -9 -8 -5 -9 3 -36 11 -59 17 -24 7 -50 14 -58 16 -11 4 -10 8 5 23 10 10 25 16 32 13 6 -2 12 1 12 7 0 6 10 11 23 11 21 1 21 1 3 11 -14 9 -21 8 -27 -2 -8 -12 -11 -12 -19 1 -8 12 -10 12 -10 1 0 -31 -76 -81 -122 -81 -24 0 -23 8 22 130 67 183 107 382 135 685 17 181 33 257 63 296 11 13 23 38 29 54 6 21 22 37 53 53 56 28 72 44 65 64 -9 22 -40 28 -107 21 -44 -4 -63 -2 -83 11 -25 17 -26 20 -20 84 6 60 5 69 -14 86 -17 16 -25 17 -46 8 -13 -6 -27 -23 -31 -37 -6 -26 -18 -32 -29 -16 -3 5 0 42 6 81 10 64 9 74 -7 91 -19 22 -57 25 -72 7 -5 -7 -15 -32 -21 -55 -6 -23 -16 -45 -21 -48 -17 -10 -39 39 -47 104 -7 52 -13 67 -34 83 -22 16 -30 18 -48 9 -19 -11 -21 -20 -21 -96 0 -47 -3 -85 -7 -85 -5 1 -24 26 -43 56 -28 44 -42 56 -73 65 -42 11 -87 5 -87 -11 0 -6 9 -19 20 -30 24 -24 94 -156 104 -195 4 -16 29 -56 56 -90 127 -159 131 -237 25 -460 -13 -28 -27 -63 -31 -79 -3 -15 -14 -30 -23 -33 -47 -14 -144 -68 -160 -89 -21 -26 -18 -76 3 -53 8 8 8 13 -1 16 -10 3 -8 9 4 21 18 18 63 17 75 -2 12 -18 8 -60 -7 -80 -14 -19 -15 -19 -15 8 0 15 5 36 10 47 10 17 7 19 -20 19 -16 0 -30 -4 -30 -10 0 -5 6 -7 13 -5 9 4 12 -8 13 -40 0 -31 -4 -45 -13 -45 -14 0 -12 -21 10 -90 10 -34 11 -34 17 -10 4 14 3 27 -1 30 -11 8 -13 33 -4 53 7 17 9 17 26 1 18 -17 19 -16 13 16 -6 26 -4 31 6 25 10 -6 11 0 6 27 -5 26 -2 39 9 48 9 7 18 10 22 6 6 -6 -15 -84 -48 -171 -10 -28 -19 -56 -19 -63 0 -8 -5 -10 -12 -6 -8 5 -9 2 -5 -10 10 -25 -4 -44 -15 -20 -6 15 -7 13 -3 -8 3 -15 -4 -46 -16 -75 -11 -26 -25 -59 -30 -72 -8 -19 -12 -21 -24 -11 -8 7 -15 28 -15 46 0 19 -5 34 -11 34 -17 0 -4 -68 18 -92 16 -18 16 -23 -10 -96 -15 -42 -27 -98 -27 -123 0 -33 -6 -54 -23 -74 -12 -16 -31 -47 -42 -69 -15 -31 -26 -41 -42 -40 -13 0 -23 -5 -23 -13 0 -10 7 -12 20 -8 11 4 20 2 20 -4 0 -6 -11 -11 -24 -11 -22 0 -24 5 -30 73 -12 122 -4 339 13 365 8 13 16 57 19 98 l5 75 -49 45 c-27 24 -54 44 -60 44 -6 0 -17 12 -24 26 -12 22 -20 25 -57 23 -23 -2 -45 0 -49 4 -4 4 -24 7 -45 7 -32 0 -45 -7 -75 -40 -21 -22 -41 -40 -45 -40 -4 0 -19 20 -33 45 -15 25 -37 54 -48 65 -23 21 -73 27 -83 10 -4 -6 -15 -8 -25 -5 -23 7 -37 -13 -16 -21 9 -3 16 -15 16 -26 0 -12 10 -37 22 -57 12 -19 23 -41 24 -49 1 -7 16 -25 33 -41 17 -16 31 -38 31 -49 0 -11 6 -27 13 -34 6 -7 28 -37 47 -65 23 -36 47 -58 71 -67 23 -9 39 -24 43 -38 9 -34 7 -136 -2 -142 -5 -3 -12 -43 -15 -88 -4 -46 -11 -84 -17 -86 -5 -2 -10 -17 -10 -33 0 -16 -5 -29 -10 -29 -6 0 -8 -11 -4 -28 4 -15 3 -23 -2 -19 -13 13 -11 107 2 107 19 0 23 26 8 49 -16 22 -34 28 -34 10 0 -5 5 -7 10 -4 17 10 11 -37 -6 -57 -13 -14 -14 -21 -5 -32 9 -10 9 -16 1 -21 -13 -8 -12 -9 -29 30 -20 45 -24 16 -6 -50 8 -33 16 -75 16 -95 1 -27 3 -29 6 -10 3 14 9 29 14 34 5 6 2 17 -7 27 -9 10 -13 23 -9 30 6 8 12 3 22 -15 12 -23 12 -32 -2 -71 -10 -32 -15 -86 -15 -182 0 -75 -3 -134 -6 -130 -4 3 -6 56 -5 117 2 85 -1 115 -13 132 l-16 22 0 -22 c0 -12 3 -22 8 -22 4 0 8 -16 9 -35 1 -20 -2 -33 -6 -30 -5 3 -11 -11 -13 -30 -3 -27 0 -35 12 -35 10 0 11 -3 4 -8 -13 -8 -24 -83 -12 -76 4 3 8 -2 8 -10 0 -9 7 -16 15 -16 8 0 15 -4 15 -9 0 -5 -10 -7 -22 -4 -23 4 -23 4 2 -18 20 -18 21 -21 5 -15 -11 5 -36 13 -55 19 -34 11 -34 11 -8 15 18 2 25 8 21 17 -4 11 -10 12 -23 5 -10 -6 -23 -10 -29 -10 -18 0 -12 18 7 23 13 4 11 5 -5 6 -13 0 -23 -3 -23 -8 0 -4 -10 -8 -22 -7 -25 1 -30 16 -53 161 -8 50 -20 102 -26 118 -6 15 -9 41 -5 57 3 17 1 30 -4 30 -17 0 -11 57 6 64 8 3 12 11 9 17 -4 6 -13 8 -21 5 -10 -4 -14 4 -14 29 0 20 5 35 12 35 6 0 8 3 5 6 -4 4 -13 1 -22 -6 -13 -11 -15 -9 -15 13 0 14 5 29 10 32 6 4 7 11 4 17 -4 6 -10 5 -15 -3 -6 -9 -9 -2 -9 23 0 20 -3 43 -6 52 -4 11 -1 16 10 16 12 0 16 -9 16 -35 0 -27 3 -33 16 -28 11 4 12 8 4 13 -7 5 -8 10 -2 14 14 8 2 56 -14 56 -8 0 -14 6 -14 13 0 9 -3 8 -9 -2 -14 -21 -28 14 -37 87 -3 34 -10 62 -14 62 -4 0 -11 15 -14 34 -4 19 -10 36 -15 38 -10 4 -94 257 -115 348 -9 40 -15 119 -15 205 -1 77 -4 148 -7 157 -3 10 -1 18 5 18 6 0 8 7 5 15 -5 12 -10 13 -20 4 -10 -8 -25 8 -69 75 -79 120 -129 158 -163 124 -7 -7 -12 -26 -12 -42 0 -24 -7 -35 -30 -48 -18 -10 -30 -25 -30 -37 0 -11 -8 -24 -17 -29 -16 -9 -42 -85 -43 -125 0 -10 31 -47 68 -83 74 -69 102 -125 102 -205 0 -22 7 -56 15 -76 8 -19 15 -60 15 -91 0 -51 -3 -57 -44 -98 -24 -24 -37 -44 -30 -44 7 0 22 10 34 22 11 12 23 19 26 15 9 -8 -34 -47 -51 -47 -7 0 -41 9 -76 21 -35 11 -80 19 -99 18 -67 -4 -96 0 -80 11 8 5 11 10 6 10 -5 0 -3 7 4 15 14 17 90 21 90 5 0 -5 -7 -10 -15 -10 -8 0 -15 -4 -15 -9 0 -5 11 -8 25 -8 21 -1 24 3 19 23 -8 30 11 31 46 4 30 -23 60 -26 60 -5 0 9 -6 12 -15 9 -11 -5 -15 1 -15 20 0 32 -32 66 -62 66 -38 0 -53 16 -50 53 2 19 -1 38 -7 41 -5 4 -9 -5 -9 -21 1 -61 -2 -73 -20 -73 -23 0 -42 19 -42 43 0 10 32 64 70 121 68 100 85 146 58 162 -6 4 -20 -4 -32 -19 -12 -15 -37 -47 -56 -71 -34 -43 -68 -70 -57 -44 40 90 77 195 75 212 -4 25 -37 29 -49 6 -5 -8 -25 -54 -45 -102 -20 -49 -41 -88 -46 -88 -5 0 -7 8 -5 18 40 144 48 193 37 207 -7 8 -16 15 -21 15 -15 0 -35 -52 -59 -148 -13 -52 -26 -89 -30 -82 -4 7 -5 49 -3 95 4 58 2 85 -7 90 -21 13 -30 -9 -41 -101 -6 -49 -21 -116 -34 -149 -12 -33 -25 -84 -29 -113 -9 -69 -24 -102 -44 -95 -10 5 -13 2 -8 -6 8 -13 -11 -71 -23 -71 -4 0 -12 5 -19 12 -9 9 -12 9 -12 1 0 -7 5 -15 10 -18 16 -10 11 -25 -6 -18 -14 5 -14 3 -3 -15 12 -18 10 -25 -9 -51 -12 -17 -22 -37 -22 -46 0 -9 -5 -13 -10 -10 -13 8 -3 43 18 68 14 16 14 19 -3 35 -17 16 -18 16 -12 0 3 -10 2 -20 -3 -23 -6 -4 -10 -15 -10 -26 0 -10 -4 -19 -10 -19 -5 0 -10 -11 -10 -25 0 -14 5 -25 10 -25 6 0 10 -4 10 -10 0 -5 -6 -7 -14 -4 -8 3 -17 0 -21 -6 -6 -9 -10 -9 -16 1 -12 19 -11 79 0 79 5 0 12 8 14 17 4 15 5 15 6 -2 1 -13 7 -6 16 19 14 39 12 56 -4 56 -5 0 -7 -12 -5 -28 2 -15 1 -19 -2 -8 -5 16 -9 13 -25 -20 -20 -42 -26 -146 -10 -186 5 -13 6 -37 3 -54 -7 -31 -6 -34 -27 127 -9 65 -10 62 163 584 123 371 148 448 203 645 18 63 39 123 47 132 15 18 42 28 142 53 67 17 181 72 250 120 78 54 293 174 418 231 249 115 398 230 555 428 51 63 154 193 230 289 118 148 143 175 170 180 54 9 146 47 178 74 16 14 49 35 72 47 39 20 42 24 42 63 0 23 3 45 8 49 16 17 6 63 -18 82 -23 18 -23 20 -7 34 25 23 100 69 153 94 51 25 67 55 41 80 -11 11 -27 15 -52 11 -33 -4 -38 -2 -47 24 -16 43 -63 40 -144 -9 -35 -21 -104 -56 -154 -77 -128 -54 -164 -82 -241 -187 -37 -51 -86 -109 -108 -128 -22 -19 -90 -83 -151 -141 -134 -129 -204 -186 -371 -306 -71 -51 -156 -119 -189 -152 -42 -43 -68 -61 -86 -61 -23 0 -282 -56 -364 -79 -18 -5 -44 -6 -59 -4 -15 3 -47 -2 -71 -11 -35 -14 -49 -15 -65 -6 -12 7 -33 9 -46 6 -26 -7 -72 12 -93 38 -11 13 -35 16 -111 16 -115 0 -190 9 -190 22 0 6 -11 19 -25 30 -14 11 -25 23 -25 28 0 4 18 32 41 60 23 29 59 93 81 143 22 51 45 97 50 104 17 21 48 137 48 178 0 51 -25 159 -44 188 -8 12 -17 45 -21 73 -11 86 -120 198 -217 224 -21 6 -88 15 -148 20 -120 11 -145 5 -200 -45 -14 -13 -47 -33 -73 -46 -68 -31 -95 -77 -114 -198 -9 -53 -29 -136 -45 -185 -24 -71 -28 -99 -24 -140 5 -43 4 -48 -6 -32 -39 58 -73 87 -121 101 -28 8 -61 15 -74 15 -19 0 -23 5 -23 28 0 38 -84 122 -122 122 -18 0 -33 10 -48 30 -12 17 -48 44 -79 60 -80 40 -160 147 -179 237 -7 33 -15 41 -62 65 -102 50 -169 137 -211 274 -28 92 -57 147 -147 284 -70 106 -172 276 -172 286 0 2 -42 91 -94 197 -51 105 -97 212 -100 237 -13 83 -29 115 -86 175 -31 33 -67 74 -79 90 -12 17 -63 72 -113 124 l-91 93 -48 -5 c-27 -3 -51 -2 -54 4 -8 12 -25 11 -47 -2z m697 -4384 c22 -13 55 -31 73 -39 17 -8 32 -19 32 -24 0 -5 -9 -35 -20 -67 -11 -32 -18 -66 -15 -74 3 -9 30 -36 60 -61 54 -46 64 -63 43 -76 -8 -5 -9 -2 -5 9 7 19 -9 33 -17 15 -3 -7 -4 -4 -3 6 1 10 -4 21 -11 24 -7 2 -13 -2 -11 -9 5 -37 -1 -46 -26 -41 -16 3 -33 -2 -43 -12 -17 -15 -19 -12 -30 57 -6 39 -14 101 -18 137 -8 79 -19 110 -38 110 -36 0 -43 -34 -38 -196 3 -107 1 -155 -6 -153 -15 6 -115 120 -141 163 -20 31 -21 41 -12 64 13 29 163 192 178 192 4 0 26 -11 48 -25z m5821 -142 c8 -17 14 -44 14 -60 0 -15 9 -39 20 -53 23 -30 27 -10 4 25 -8 13 -14 34 -11 47 4 20 4 20 6 -4 0 -18 7 -28 16 -28 9 0 14 8 12 23 -2 24 -18 47 -28 41 -3 -2 -6 16 -7 40 0 38 2 43 19 39 13 -4 18 -11 14 -22 -6 -21 45 -47 57 -28 6 9 18 2 43 -25 32 -35 47 -78 26 -78 -5 0 -8 12 -8 26 0 14 -10 34 -21 45 -23 21 -42 25 -42 9 0 -5 6 -10 13 -10 9 0 9 -2 -1 -9 -11 -7 -10 -9 3 -14 9 -4 13 -3 10 3 -3 6 -2 10 3 10 13 0 24 -29 16 -42 -4 -6 -1 -14 6 -18 7 -4 10 -15 7 -25 -4 -9 -11 -14 -16 -11 -13 9 -8 -27 7 -42 10 -11 15 -11 27 2 8 8 15 18 15 21 0 4 -7 5 -15 1 -9 -3 -15 0 -15 9 0 30 18 22 55 -23 22 -26 46 -52 55 -59 8 -6 23 -18 34 -25 10 -8 19 -27 19 -41 0 -28 12 -36 20 -14 3 6 6 2 6 -10 1 -12 -4 -23 -10 -25 -8 -3 -8 -14 -1 -40 7 -26 7 -38 -1 -41 -6 -2 -16 -21 -22 -43 -7 -25 -16 -38 -26 -36 -9 1 -21 -12 -29 -33 -8 -19 -17 -35 -22 -35 -12 0 -10 28 2 35 6 4 8 11 5 16 -4 5 1 12 9 15 20 8 21 30 1 38 -9 3 -15 0 -15 -10 0 -8 -5 -12 -10 -9 -6 4 -9 -5 -8 -22 3 -54 -2 -81 -18 -87 -14 -5 -15 -2 -8 21 12 43 6 90 -16 131 l-19 37 -1 -32 c0 -18 4 -33 8 -33 12 0 30 -56 23 -69 -4 -6 -18 18 -32 54 -13 36 -27 65 -31 65 -5 0 -8 5 -8 11 0 7 -15 35 -34 63 -38 57 -109 232 -101 246 5 8 -14 84 -35 137 -5 11 -6 24 -2 28 4 3 10 -6 15 -22 5 -15 15 -42 23 -60z m-452 10 c4 -5 12 -9 17 -9 5 -1 13 -2 19 -3 5 0 23 -14 39 -30 26 -25 28 -31 16 -41 -8 -7 -15 -23 -15 -36 0 -13 -4 -24 -10 -24 -5 0 -7 -8 -4 -17 5 -15 4 -15 -5 -3 -5 8 -13 11 -17 7 -4 -3 -1 -13 6 -22 16 -19 50 -165 39 -165 -5 0 -9 10 -9 22 0 20 -1 20 -19 4 -10 -10 -22 -34 -26 -54 -4 -20 -12 -40 -18 -44 -7 -4 -5 -17 7 -40 l17 -33 -6 31 c-3 16 -1 41 4 55 10 24 15 13 12 -23 -1 -10 2 -26 8 -35 8 -14 10 -9 11 25 0 23 -5 51 -12 61 -6 11 -8 26 -3 37 7 16 9 15 14 -11 4 -20 9 -26 14 -17 5 7 13 9 19 6 6 -4 5 -10 -3 -15 -10 -6 -11 -9 -1 -9 7 0 12 -13 12 -31 0 -16 4 -28 9 -25 5 3 7 20 4 38 -8 60 -8 246 0 241 4 -2 7 -42 7 -88 0 -46 6 -114 14 -152 8 -37 17 -96 20 -131 7 -57 5 -63 -11 -60 -15 3 -17 -3 -15 -36 3 -27 1 -36 -8 -31 -6 4 -10 16 -7 26 3 11 1 19 -4 19 -5 0 -9 -24 -9 -52 0 -54 -19 -105 -37 -101 -6 1 -16 -9 -23 -22 -17 -31 -35 -32 -45 -2 -7 21 -7 21 -12 2 -3 -10 0 -21 6 -23 7 -2 8 -9 1 -23 -8 -15 -7 -17 5 -13 8 4 15 10 15 15 0 5 5 9 11 9 6 0 9 -7 6 -14 -4 -10 -1 -13 9 -9 10 4 11 9 4 17 -13 17 12 51 33 43 8 -3 22 0 30 6 18 15 30 47 17 47 -21 0 -9 48 15 66 19 14 24 25 20 42 -4 15 -1 22 10 22 9 0 15 -9 15 -22 0 -13 9 -42 19 -65 11 -23 17 -52 14 -65 -3 -16 -2 -19 5 -10 7 11 15 3 31 -32 13 -25 20 -50 16 -56 -3 -6 0 -7 9 -4 9 4 16 1 16 -6 0 -7 12 -38 26 -67 14 -30 23 -61 20 -69 -3 -8 -2 -12 4 -9 11 7 25 -19 35 -65 4 -19 11 -37 15 -40 4 -3 10 -14 14 -26 6 -20 3 -21 -66 -23 -78 -2 -88 9 -13 14 53 4 64 10 47 27 -9 9 -12 9 -12 0 0 -7 -7 -12 -16 -12 -10 0 -14 6 -10 15 8 23 -11 18 -28 -7 -9 -12 -19 -18 -23 -14 -5 4 4 18 18 30 26 22 49 63 28 50 -8 -4 -9 1 -4 16 5 15 4 20 -4 16 -14 -9 -14 -4 -1 28 14 37 -5 32 -24 -6 -20 -38 -20 -36 2 -41 11 -3 8 -5 -9 -6 -14 0 -30 4 -37 11 -9 9 -12 9 -12 0 0 -7 6 -12 13 -12 6 -1 2 -9 -10 -19 -13 -11 -24 -27 -24 -38 -2 -30 -18 59 -18 104 -1 43 7 57 26 45 15 -9 10 -45 -5 -50 -7 -2 -12 -12 -12 -23 0 -18 1 -18 21 2 30 30 23 80 -13 90 -21 5 -25 4 -21 -7 6 -15 -21 -15 -44 -1 -9 6 -13 1 -13 -17 0 -14 -4 -26 -10 -26 -5 0 -10 5 -10 10 0 6 -5 10 -11 10 -7 0 -9 -10 -5 -26 6 -22 4 -25 -10 -20 -17 6 -17 6 -1 -12 9 -10 14 -21 11 -25 -9 -9 -34 18 -34 37 0 8 -5 18 -11 21 -21 13 -21 -5 0 -38 24 -39 27 -86 9 -120 -7 -12 -13 -23 -13 -24 0 0 -26 -4 -57 -8 -57 -7 -58 -7 -58 18 0 14 -8 31 -17 36 -17 10 -17 10 1 11 14 0 16 3 7 13 -8 10 -8 51 0 151 8 99 8 174 0 268 -13 159 -13 286 0 353 6 28 13 70 16 95 7 57 18 71 52 65 14 -3 20 -2 13 1 -16 7 3 34 24 34 17 0 21 7 30 55 6 36 5 39 -8 27 -10 -8 -26 -10 -42 -6 -33 8 -34 28 -1 22 14 -3 28 -2 30 2 3 4 -11 10 -31 12 -19 2 -37 0 -40 -4 -7 -11 -34 -10 -34 2 0 6 7 10 15 10 8 0 15 7 15 15 0 16 12 20 24 8z m-5887 -27 c-14 -11 -15 -15 -5 -19 10 -5 9 -9 -4 -17 -9 -6 -15 -17 -12 -25 9 -21 -2 -18 -26 7 -11 12 -23 18 -27 15 -8 -9 28 -44 51 -48 16 -4 16 -5 1 -24 -9 -11 -14 -15 -11 -9 3 7 -1 15 -10 18 -24 9 -28 1 -12 -23 11 -18 10 -24 -11 -43 -19 -18 -22 -19 -18 -5 4 9 2 17 -4 17 -7 0 -9 -10 -5 -25 5 -21 1 -29 -29 -46 -20 -12 -43 -35 -52 -52 -15 -31 -16 -31 -24 -9 -5 12 -11 22 -13 22 -3 0 -1 -11 4 -25 10 -26 4 -55 -11 -55 -5 0 -9 -6 -9 -14 0 -8 -3 -17 -7 -19 -13 -8 -15 197 -4 241 7 26 22 49 40 61 55 39 126 17 79 -24 -20 -17 -21 -17 -15 4 3 15 0 21 -10 21 -10 0 -14 -6 -10 -20 3 -11 0 -20 -6 -20 -8 0 -7 -4 1 -12 17 -17 15 -28 -5 -22 -10 2 -8 -1 4 -7 12 -6 24 -17 27 -24 6 -18 -18 -49 -34 -43 -10 3 -9 8 3 20 9 8 13 18 10 22 -11 11 -20 6 -30 -17 -17 -37 7 -50 46 -24 34 24 38 39 16 57 -17 15 -20 40 -4 40 6 0 9 -7 5 -15 -6 -18 -5 -18 28 -5 32 12 35 34 4 24 l-23 -6 23 24 c25 28 28 38 8 38 -8 0 -16 6 -19 14 -7 17 32 29 59 19 13 -5 16 -3 11 10 -4 10 0 20 11 26 25 15 40 12 19 -3z m260 -163 c3 -10 17 -33 31 -51 37 -51 102 -182 101 -206 0 -21 0 -21 -9 -1 -10 24 -46 55 -63 54 -9 0 -9 -2 1 -6 6 -2 10 -9 6 -14 -3 -5 2 -12 10 -15 9 -3 13 -10 10 -15 -3 -5 2 -6 12 -2 13 5 15 2 9 -16 -4 -15 -1 -29 10 -40 15 -17 15 -19 -2 -25 -12 -5 -22 -1 -31 11 -7 10 -27 38 -43 62 -29 41 -33 43 -68 38 -36 -4 -37 -4 -34 27 l2 31 -11 -27 c-6 -15 -18 -30 -25 -33 -9 -3 -12 0 -7 8 5 9 4 9 -6 0 -11 -10 -11 -15 0 -28 18 -22 -3 -46 -22 -26 -11 11 -10 13 5 8 9 -4 17 -2 17 3 0 6 -5 10 -11 10 -18 0 0 75 32 133 17 28 29 43 28 32 -4 -51 5 -54 12 -5 5 30 11 64 13 75 2 11 5 23 5 28 2 14 22 7 28 -10z m12924 -95 c19 -18 23 -29 18 -53 -5 -22 -7 -24 -8 -8 -2 31 -12 54 -21 48 -5 -3 -4 -20 1 -37 5 -18 6 -41 3 -50 -3 -10 -1 -18 5 -18 6 0 11 5 11 10 0 6 11 22 25 36 26 26 30 24 38 -26 3 -17 5 -13 6 13 1 38 27 107 40 107 3 0 14 -39 23 -86 10 -52 24 -94 36 -107 13 -15 26 -59 40 -132 23 -122 21 -130 -37 -181 -32 -29 -51 -30 -51 -4 0 11 -4 20 -10 20 -5 0 -10 -8 -10 -17 0 -13 -3 -14 -12 -5 -7 7 -18 12 -26 12 -20 0 8 -27 34 -32 15 -3 11 -8 -21 -28 -55 -34 -59 -35 -52 -16 4 10 1 16 -7 16 -15 0 -33 76 -22 87 3 4 6 -3 6 -15 0 -15 6 -22 20 -22 11 0 20 5 20 10 0 6 -7 10 -16 10 -11 0 -14 6 -8 23 14 45 23 53 24 20 0 -18 5 -33 11 -33 6 0 9 16 8 39 -2 22 3 49 12 62 13 20 13 30 3 64 -7 22 -13 58 -14 80 -2 39 -3 39 -10 10 l-8 -30 -1 28 c0 15 -6 27 -12 27 -8 0 -9 -13 -5 -39 3 -23 2 -42 -4 -46 -5 -3 -10 3 -10 14 0 12 -6 21 -14 21 -13 0 -13 -4 -2 -25 8 -14 13 -60 14 -108 l0 -82 -9 85 c-5 47 -12 92 -16 100 -3 8 -8 24 -10 35 -6 30 -15 245 -10 245 2 0 15 -10 28 -22z m-4220 -210 c29 -45 34 -62 34 -109 -1 -33 -7 -66 -16 -80 -9 -13 -40 -102 -69 -197 -41 -133 -63 -188 -97 -239 -24 -36 -43 -74 -43 -84 0 -11 -4 -19 -10 -19 -5 0 -10 -7 -10 -15 0 -8 -9 -24 -20 -35 -20 -20 -28 -70 -11 -70 6 0 12 15 14 33 2 17 3 7 0 -23 -4 -60 -25 -89 -50 -69 -12 11 -17 5 -14 -13 0 -5 -8 -8 -19 -8 -18 0 -20 7 -20 65 0 45 4 65 13 65 8 0 9 3 1 8 -14 9 0 136 21 200 8 23 15 50 15 59 0 14 2 14 15 -3 19 -25 19 -38 0 -30 -11 4 -15 -1 -15 -18 0 -13 7 -26 14 -29 10 -4 13 -1 9 9 -3 8 1 20 10 27 18 14 33 107 18 107 -6 0 -11 -9 -11 -20 0 -11 -6 -20 -14 -20 -15 0 -4 43 36 133 23 51 29 55 52 32 13 -14 15 -10 21 29 4 25 5 51 2 58 -3 7 -6 0 -7 -17 0 -26 -2 -27 -11 -12 -11 19 -3 61 10 52 5 -2 9 7 9 21 0 13 20 71 45 127 25 56 48 110 51 120 3 9 7 17 9 17 2 0 19 -24 38 -52z m-8852 -148 c12 -22 21 -58 21 -80 0 -26 10 -57 31 -91 31 -53 51 -117 32 -106 -24 15 -124 148 -121 159 3 7 -5 18 -16 23 -23 12 -23 42 -1 85 l14 25 11 -32 c7 -18 16 -30 21 -27 5 3 2 15 -6 27 -14 19 -21 57 -11 57 2 0 13 -18 25 -40z m299 -87 c-3 -60 -4 -100 -1 -90 4 14 8 15 18 7 11 -9 10 -15 -6 -31 -12 -12 -19 -32 -18 -56 l1 -38 10 38 c6 20 14 37 19 37 5 0 9 7 9 16 0 8 5 12 10 9 7 -4 7 -11 2 -18 -14 -18 -21 -57 -11 -57 5 0 9 8 9 17 0 9 7 25 17 35 9 10 11 18 5 18 -32 0 -70 148 -42 165 11 7 12 -2 12 -50 -1 -30 -1 -30 8 4 8 34 43 70 67 71 23 0 50 -65 56 -134 4 -37 11 -73 16 -80 5 -6 12 -29 15 -51 l7 -40 -20 45 c-17 39 -20 42 -20 18 -1 -15 4 -30 9 -33 14 -8 13 -21 -3 -37 -8 -8 -10 -24 -6 -43 l6 -30 8 33 c12 52 22 46 17 -11 -5 -58 -9 -68 -21 -48 -6 8 -11 9 -15 3 -3 -6 -2 -13 4 -17 19 -12 11 -68 -13 -90 -13 -11 -27 -28 -30 -39 -6 -16 -10 -16 -24 -5 -9 8 -24 13 -35 11 -24 -4 -23 17 1 26 16 6 17 9 5 19 -10 10 -15 10 -21 0 -4 -7 -12 10 -20 43 -47 212 -49 224 -42 320 4 52 8 112 8 133 1 20 4 37 8 37 3 0 4 -48 1 -107z m8817 13 c-20 -17 -24 -25 -14 -30 8 -3 10 -8 4 -11 -6 -3 -9 -33 -8 -66 2 -59 -10 -89 -35 -89 -5 0 -9 -7 -9 -15 0 -18 13 -20 20 -2 3 6 6 -10 6 -38 1 -59 18 -125 31 -125 6 0 10 -22 10 -49 0 -28 5 -53 10 -56 15 -9 12 -81 -4 -94 -12 -10 -13 -5 -9 30 l6 42 -25 -19 c-17 -13 -22 -21 -14 -26 7 -5 5 -8 -5 -8 -9 0 -27 -9 -40 -19 -21 -17 -22 -22 -11 -40 11 -20 10 -21 -20 -21 -30 1 -32 2 -15 14 15 12 17 18 7 36 -13 24 -4 43 9 21 5 -7 11 -9 13 -5 3 5 -3 18 -13 28 -12 12 -19 15 -19 7 0 -13 -24 -41 -34 -41 -10 0 -6 18 7 32 8 8 13 55 16 133 2 66 8 128 13 139 6 10 12 63 15 118 5 90 8 101 31 118 14 11 30 20 37 20 6 0 20 9 30 20 10 11 23 20 28 20 6 0 -2 -11 -18 -24z m9014 -118 c-5 -10 -14 -18 -19 -18 -5 0 -9 -16 -8 -36 1 -20 -4 -39 -12 -44 -12 -8 -11 -24 6 -107 5 -26 3 -33 -10 -33 -9 0 -16 -4 -16 -10 0 -19 32 -10 37 10 8 30 37 21 41 -13 3 -25 22 -40 22 -17 0 6 5 10 10 10 24 0 6 -17 -47 -45 -75 -40 -72 -39 -66 -13 4 16 2 20 -5 13 -5 -5 -12 -19 -14 -29 -1 -11 -10 -22 -18 -24 -12 -4 -13 -2 -3 9 6 8 12 19 12 24 3 25 13 45 22 40 5 -4 6 7 2 26 -4 21 -2 34 8 40 12 8 12 10 0 18 -10 7 -12 21 -6 57 4 27 11 55 17 61 6 7 8 20 4 28 -3 9 -1 23 4 33 5 9 12 35 16 57 l7 40 12 -30 c9 -20 10 -36 4 -47z m-3118 -93 c-5 -20 -7 -91 -4 -165 5 -113 4 -130 -9 -130 -9 0 -21 7 -28 15 -18 22 -32 18 -20 -5 6 -11 7 -20 1 -20 -5 0 -11 -7 -15 -15 -3 -9 0 -15 10 -15 9 0 18 9 21 20 4 16 9 18 24 9 25 -13 24 -29 0 -29 -11 0 -23 -5 -27 -12 -4 -7 -3 -8 4 -4 21 13 18 -42 -3 -59 -16 -13 -27 -57 -12 -52 6 2 14 10 18 18 26 53 31 69 26 82 -3 8 1 14 9 14 8 0 14 -9 14 -19 0 -11 7 -32 15 -47 8 -16 17 -48 19 -72 3 -24 3 -35 -1 -24 -3 11 -14 27 -24 36 -11 9 -19 21 -19 28 0 6 -5 11 -11 11 -6 0 -9 -6 -6 -14 7 -18 -44 -38 -64 -25 -8 5 -24 9 -36 9 -13 0 -23 4 -23 9 0 5 -10 7 -22 3 -21 -5 -21 -6 -2 -14 13 -6 9 -7 -15 -3 -18 3 -39 5 -45 5 -7 0 -10 22 -9 62 l1 63 -10 -57 c-6 -32 -14 -58 -17 -58 -13 0 1 162 16 189 14 25 14 24 8 -19 -5 -36 -4 -41 5 -27 7 10 10 35 9 55 -3 39 26 102 48 102 6 0 14 6 16 13 3 6 6 -3 6 -20 1 -33 -11 -43 -25 -22 -4 8 -12 3 -20 -12 -16 -29 -17 -39 -4 -39 6 0 10 7 10 15 0 8 5 15 11 15 6 0 9 -8 7 -18 -3 -11 0 -19 8 -19 8 0 14 11 14 24 0 13 4 23 9 23 16 0 21 31 10 53 -9 16 -9 22 0 25 6 2 9 7 6 12 -6 10 44 64 53 56 3 -4 0 -11 -8 -16 -8 -6 -11 -10 -6 -10 5 0 1 -9 -9 -20 -10 -11 -13 -20 -7 -20 6 0 15 -12 20 -27 8 -24 10 -16 16 52 9 86 14 104 26 85 4 -7 10 3 15 26 4 21 12 48 18 59 11 19 12 18 15 -12 2 -18 -1 -48 -7 -68z m-11754 -118 c5 -77 4 -87 -10 -82 -15 6 -28 61 -27 121 0 38 -34 84 -44 58 -9 -23 -8 -27 8 -21 10 4 13 -6 12 -45 -1 -32 4 -52 12 -55 14 -6 16 -33 2 -33 -16 0 -32 51 -25 78 4 15 2 21 -5 17 -5 -3 -10 1 -10 10 0 9 -4 14 -9 10 -11 -6 -3 -74 12 -92 6 -9 5 -13 -5 -13 -8 0 -15 12 -16 32 -3 43 -12 50 -12 10 0 -22 -5 -32 -15 -32 -20 0 -19 26 4 76 24 52 50 84 66 78 7 -3 16 3 19 13 4 10 3 19 -2 21 -5 1 -7 14 -4 29 8 44 42 -79 49 -180z m7882 94 c26 -103 26 -116 3 -138 -46 -44 -69 -61 -89 -67 -22 -7 -22 -5 -19 60 2 37 9 69 14 73 6 3 13 29 17 56 7 58 37 129 46 112 4 -7 16 -50 28 -96z" fill="#ffffff"/>
<path d="M10517 5360 c-4 -16 -1 -24 13 -27 25 -7 66 -83 45 -83 -8 0 -15 4 -15 9 0 4 -11 20 -25 35 -16 17 -25 22 -25 13 0 -8 7 -20 15 -27 8 -7 20 -30 25 -51 6 -22 15 -39 20 -39 14 0 12 18 -2 22 -6 2 -8 9 -4 16 5 8 13 5 27 -9 16 -16 18 -23 8 -35 -8 -10 -8 -14 0 -14 6 0 11 -4 11 -10 0 -16 -21 -12 -43 8 -19 16 -19 16 -13 -8 3 -14 3 -19 0 -12 -3 6 -12 12 -20 12 -8 0 -14 5 -14 10 0 6 5 10 10 10 10 0 8 20 -7 73 -4 17 -6 17 -17 1 -10 -13 -15 -14 -21 -4 -4 7 -2 16 6 21 10 6 6 8 -13 7 -26 -2 -26 -3 -12 -30 17 -32 29 -35 44 -10 9 14 10 13 4 -8 -14 -51 -9 -73 25 -93 27 -16 31 -15 82 2 38 14 60 16 77 10 22 -8 23 -8 12 6 -7 8 -20 15 -30 15 -20 0 -96 73 -81 78 9 3 -31 76 -50 92 -3 3 -10 13 -16 24 -9 17 -10 17 -16 -4z" fill="#ffffff"/>
<path d="M12507 5148 c-4 -15 -16 -32 -27 -38 -17 -9 -20 -8 -20 9 0 11 -4 23 -10 26 -17 10 -11 -61 5 -75 10 -9 12 -16 6 -20 -6 -3 -14 -28 -18 -56 -5 -36 -14 -56 -36 -77 -27 -25 -30 -34 -29 -87 0 -62 -6 -74 -49 -85 -18 -4 -31 -1 -42 9 -20 20 -27 20 -27 0 0 -9 8 -18 19 -21 10 -2 24 -16 30 -29 9 -21 8 -24 -9 -24 -16 0 -40 -26 -40 -44 0 -14 27 2 58 32 18 19 36 31 40 27 4 -3 0 -10 -8 -15 -8 -5 -15 -13 -16 -17 -2 -21 -18 -43 -31 -43 -8 0 -11 -4 -8 -10 8 -12 52 16 60 38 3 10 20 28 36 41 25 20 32 22 40 10 5 -8 9 -10 9 -6 0 4 -8 19 -17 33 -16 26 -17 26 -25 5 -8 -23 -32 -28 -44 -9 -4 6 -3 8 3 5 15 -9 37 39 36 79 -1 23 4 34 13 34 8 0 11 6 7 16 -5 13 -7 13 -14 2 -7 -10 -9 -9 -9 5 0 10 11 30 25 45 l25 27 0 -47 c0 -26 -5 -50 -11 -53 -6 -4 -8 -13 -5 -20 3 -8 -2 -19 -10 -25 -21 -18 -17 -32 5 -18 11 7 19 14 19 17 0 4 3 16 7 29 9 26 27 30 24 5 -3 -29 12 -53 33 -53 11 0 32 -8 46 -19 32 -22 124 -40 105 -20 -7 7 -37 19 -65 26 -64 16 -100 53 -124 130 -16 50 -16 58 0 121 10 40 24 74 37 84 15 12 19 26 17 50 l-3 33 -8 -27z" fill="#ffffff"/>
<path d="M12617 5108 c-36 -6 -57 -18 -84 -46 -34 -35 -36 -40 -37 -110 -1 -40 4 -76 9 -80 6 -4 16 -19 24 -34 8 -16 23 -28 33 -28 10 0 18 -4 18 -9 0 -5 9 -11 21 -14 18 -5 20 -2 15 16 -3 12 -6 26 -6 31 0 4 -12 5 -26 2 -17 -5 -23 -3 -19 4 3 5 3 15 -1 22 -5 8 -10 6 -16 -8 -7 -16 -8 -15 -4 5 3 14 2 30 -3 35 -19 25 -19 62 -1 104 24 54 25 58 3 41 -15 -13 -15 -12 -3 11 8 15 15 20 18 12 6 -19 22 -14 48 13 26 28 36 32 28 10 -9 -23 14 -18 26 6 7 11 10 22 8 23 -2 1 -25 -1 -51 -6z" fill="#ffffff"/>
<path d="M9525 5059 c-30 -30 -33 -166 -5 -202 13 -17 27 -24 38 -21 15 5 15 4 2 -5 -13 -10 -13 -13 4 -26 11 -8 34 -16 50 -16 17 -1 53 -3 79 -4 32 -2 53 2 63 12 25 25 5 35 -57 29 -33 -3 -61 -1 -64 4 -4 6 -17 10 -29 10 -13 0 -29 7 -36 15 -10 12 -15 13 -21 4 -4 -7 -10 14 -14 47 -3 32 -9 72 -12 87 -4 23 -2 28 13 25 9 -2 19 3 22 11 3 9 0 11 -7 7 -8 -6 -10 0 -5 18 7 31 5 31 -21 5z" fill="#ffffff"/>
<path d="M19559 4538 c0 -2 -3 -17 -5 -35 -6 -35 11 -54 21 -23 12 38 25 20 25 -35 0 -37 -4 -55 -12 -55 -9 0 -8 -4 2 -10 13 -8 12 -10 -2 -10 -10 0 -18 5 -18 12 0 6 -10 3 -22 -9 -13 -11 -34 -20 -46 -21 -13 0 -30 -9 -37 -19 -12 -16 -11 -20 10 -30 31 -17 78 4 64 29 -6 12 -4 17 11 21 17 4 20 0 20 -33 0 -22 6 -40 13 -43 9 -3 12 5 10 32 l-3 36 15 -40 c8 -22 13 -31 11 -20 -1 11 3 32 11 47 7 15 12 42 11 60 -1 18 2 49 6 68 7 34 5 37 -32 58 -37 20 -51 26 -53 20z" fill="#ffffff"/>
</g>
</svg>